<svg id="Calque_1" data-name="Calque 1" xmlns="http://www.w3.org/2000/svg" viewBox="0 0 685.98 426.88"><defs><style>.cls-1{fill:#909090;}.cls-2{fill:#f39c12;}</style></defs><title>storable-logo</title><path class="cls-1" d="M85.42,308.26c0,7.88-5.9,14-13.39,14-3,0-3,0-10.44-2.75A41.46,41.46,0,0,0,48.19,317C39.33,317,33,321.5,33,327.81a9,9,0,0,0,4.15,7.48c3.54,2.56,3.54,2.56,16.15,5.9,29,7.85,41.39,20.25,41.4,41.53,0,11.42-4.11,22.46-11.2,30.15-8.27,9.06-22.05,14-38.8,14C18.53,426.9,0,417.66,0,404.66c0-7.88,5.9-14.39,13-14.39,3.74,0,3.74,0,18.13,5.5a43.62,43.62,0,0,0,14.77,2.94c10,0,16.55-5.53,16.54-13.8a10.43,10.43,0,0,0-5.13-9.45c-3.74-2.56-6.5-3.54-20.89-7.86-15.37-4.52-21.47-7.47-27-13C3.9,349.3.93,340.83.93,330.79c0-24.43,20.25-42,48.42-42C70.43,288.77,85.41,296.84,85.42,308.26Z"/><path class="cls-1" d="M139.63,405.53c0,6.9-.19,8.67-2,12-2.17,4.34-7.29,7.29-12.41,7.3-5.32,0-10.44-3-12.61-7.28-1.78-3.35-2-4.92-2-12l0-55.75c-7.69,0-12-1.18-14.59-4.33a13.3,13.3,0,0,1-3.35-8.66c0-6.7,4.32-11.82,11.22-12.81,2-.4,2-.4,6.69-.4v-15c0-6.9.19-8.67,2-11.83,2.17-4.33,7.28-7.29,12.6-7.29,5.13,0,10.25,2.94,12.42,7.08,1.78,3.35,2,4.92,2,12v15h5.32c6.3,0,7.88.19,11,1.76a13,13,0,0,1,6.51,11.23c0,4.72-2.75,9.45-6.49,11.43-3.15,1.58-4.53,1.77-11,1.78h-5.32Z"/><path class="cls-1" d="M244.37,337.29c8.48,9.25,13,22,13,36.23,0,29.55-20.64,51.83-48.22,51.85a48.33,48.33,0,0,1-35.47-15.73c-8.68-9.45-13-21.85-13-36.83,0-28.76,21-51.23,48.42-51.25A48.24,48.24,0,0,1,244.37,337.29Zm-55.13,35.9c0,14.57,8.29,25.2,19.33,25.19,11.42,0,20.28-11,20.27-25,0-13.79-8.89-24.81-20.31-24.8C197.69,348.56,189.23,359.4,189.24,373.19Z"/><path class="cls-1" d="M267.16,338.65c0-10,5.7-16.55,14.56-16.56,6.5,0,11.23,3.34,14.39,10.23,8.07-8.08,13.19-10.84,19.89-10.85a14.81,14.81,0,0,1,14.79,15c0,6.9-3,9.66-14.77,13.21-15.75,5.14-19.89,9.08-19.88,19.32l0,36.45c0,6.89-.19,8.66-2,12-2.16,4.34-7.28,7.3-12.4,7.3-5.32,0-10.45-2.94-12.62-7.28-1.77-3.34-2-4.92-2-12Z"/><path class="cls-1" d="M428,407.47c0,10.24-5.9,17.14-14.57,17.15-6.89,0-11.62-3.74-14.58-11.42-7.28,9.07-13.19,12-23.83,12a42.27,42.27,0,0,1-28.57-11q-17.16-15.06-17.17-41.35c0-16,4.7-28,15.13-38.23,8.66-8.68,18.9-13.21,30.13-13.22,10.25,0,16.36,2.94,24.64,11.4,3.14-7.68,7.47-10.84,14.37-10.84a14.42,14.42,0,0,1,14.39,14.76Zm-69.77-34.42c0,15.17,7.9,25.21,20.12,25.2,11.82,0,19.89-10.26,19.87-25s-8.09-24.82-20.11-24.81C366.29,348.42,358.22,358.47,358.23,373.05Z"/><path class="cls-1" d="M471.84,329.82c8.67-6.31,14.77-8.48,23.44-8.49,24.82,0,44.93,22.81,45,51.57,0,29.55-19.26,52.22-44.67,52.24-10.84,0-17.93-3.33-24-11.4-3.15,7.49-7.28,10.84-13.59,10.84-8.86,0-15-6.29-15-15.35l-.09-111.3c0-6.9.19-8.67,2-12,2.16-4.33,7.28-7.29,12.6-7.3,5.12,0,10.25,2.95,12.42,7.28,1.77,3.35,2,4.92,2,12ZM471.68,373c0,14.58,8.49,25.21,20.11,25.2,11.23,0,19.69-10.85,19.68-25,0-14-8.49-24.82-19.72-24.81C480.33,348.33,471.67,359,471.68,373Z"/><path class="cls-1" d="M578.83,405.18c0,6.9-.19,8.67-2,12-2.16,4.33-7.28,7.29-12.41,7.3-5.31,0-10.44-2.95-12.61-7.28-1.78-3.35-2-4.92-2-12l-.08-107.36c0-6.89.19-8.66,2-11.82,2.16-4.33,7.28-7.29,12.6-7.3,5.12,0,10.24,2.95,12.41,7.09,1.78,3.34,2,4.92,2,12Z"/><path class="cls-1" d="M619.41,382.69c4.34,11.62,11.63,17.13,23.06,17.12,6.89,0,8.67-.6,23.83-8.09a16.33,16.33,0,0,1,6.3-1.39c5.91,0,11.63,5.7,11.63,11.81,0,11.82-21.06,22.87-43.32,22.89-30.92,0-52.61-20.84-52.63-50.39,0-30.73,21-53.4,49.6-53.42,27,0,48.08,21.82,48.1,50,0,8.08-3.73,11.43-12.6,11.44Zm38-19.73c-1.38-5.51-2.37-7.88-4.14-10.63a18,18,0,0,0-14.78-7.48c-9.66,0-16,5.53-20.08,18.14Z"/><polygon class="cls-2" points="311.55 48.01 275.54 48.01 275.54 137.61 311.55 101.61 311.55 48.01"/><polygon class="cls-2" points="359.56 53.59 359.56 48.01 323.55 48.01 323.55 89.6 359.56 53.59"/><polygon class="cls-2" points="323.55 174.46 323.55 180.04 359.56 180.04 359.56 138.46 323.55 174.46"/><polygon class="cls-2" points="371.56 180.04 407.57 180.04 407.57 90.44 371.56 126.45 371.56 180.04"/><path class="cls-2" d="M227.53,228.06H455.59V0H227.53Zm192-36H289L419.58,61.47Zm-156-156H394.12L263.54,166.59Z"/></svg>