<svg id="Calque_1" data-name="Calque 1" xmlns="http://www.w3.org/2000/svg" viewBox="0 0 536.43 270.64"><defs><style>.cls-1{fill:#7b7b7b;}.cls-2{fill:#f39c12;}</style></defs><title>superstore-logo</title><path class="cls-1" d="M52.39,175a8.31,8.31,0,0,1-8.21,8.58c-1.81,0-1.81,0-6.41-1.68a25.19,25.19,0,0,0-8.21-1.57c-5.44,0-9.3,2.79-9.3,6.65a5.46,5.46,0,0,0,2.54,4.59c2.18,1.57,2.18,1.57,9.91,3.62C50.48,200,58.09,207.63,58.1,220.68a27.43,27.43,0,0,1-6.87,18.49c-5.07,5.57-13.52,8.59-23.79,8.6C11.37,247.78,0,242.11,0,234.14c0-4.83,3.62-8.82,8-8.83,2.29,0,2.29,0,11.11,3.38a26.85,26.85,0,0,0,9.07,1.8c6.16,0,10.14-3.39,10.14-8.46a6.4,6.4,0,0,0-3.15-5.8c-2.29-1.57-4-2.17-12.81-4.82-9.42-2.77-13.17-4.58-16.56-8S.57,195,.57,188.83c0-15,12.42-25.74,29.7-25.76C43.2,163.06,52.38,168,52.39,175Z"/><path class="cls-1" d="M117.57,221.72c0,6.29-1.32,10.88-4.33,14.63-5.07,6.52-13.89,10.52-23.19,10.52s-18.13-4-23.21-10.49c-3-3.74-4.36-8.33-4.36-14.61l0-26.34c0-4.23.11-5.32,1.2-7.37A8.82,8.82,0,0,1,79,188c1.09,2.06,1.22,3,1.22,7.37l0,24.17c0,3.74.73,5.56,2.78,7.61a10.24,10.24,0,0,0,14,0c2-2.06,2.77-3.87,2.77-7.62l0-24.16c0-4.23.12-5.32,1.2-7.37a8.82,8.82,0,0,1,15.35,0c1.09,2,1.21,3,1.21,7.36Z"/><path class="cls-1" d="M125.2,194.05c0-6.53,3.25-10.51,8.57-10.52,4.11,0,6.28,1.69,8.58,6.76,4.71-5.2,9.06-7.14,15.82-7.14,14.75,0,26.23,13.63,26.25,31.27,0,18.49-11.7,32.39-27.28,32.4-5.56,0-8.94-1.2-14.14-5.18v17.15c0,4.35-.11,5.44-1.2,7.37a8.82,8.82,0,0,1-15.34,0c-1.09-2.06-1.21-3-1.22-7.37Zm17.29,20.77c0,9.18,4.85,15.46,12,15.45,6.88,0,12.19-6.65,12.19-15.35s-5.33-15.22-12.22-15.22S142.49,206,142.49,214.82Z"/><path class="cls-1" d="M204.93,220.81c2.66,7.12,7.13,10.5,14.14,10.5,4.23,0,5.32-.37,14.62-5a10.06,10.06,0,0,1,3.86-.85,7.6,7.6,0,0,1,7.14,7.25c0,7.25-12.92,14-26.57,14-19,0-32.27-12.78-32.29-30.9,0-18.85,12.9-32.75,30.42-32.77,16.56,0,29.49,13.39,29.51,30.67,0,4.95-2.29,7-7.73,7Zm23.3-12.1a18.94,18.94,0,0,0-2.54-6.53,11.07,11.07,0,0,0-9.06-4.58c-5.92,0-9.79,3.39-12.32,11.13Z"/><path class="cls-1" d="M250.65,193.59c0-6.17,3.49-10.16,8.93-10.16,4,0,6.89,2,8.83,6.28,4.94-5,8.08-6.66,12.19-6.66a9.07,9.07,0,0,1,9.07,9.18c0,4.22-1.81,5.92-9.05,8.1-9.67,3.15-12.2,5.57-12.2,11.85l0,22.35c0,4.23-.12,5.32-1.2,7.37a8.82,8.82,0,0,1-15.35,0c-1.08-2-1.21-3-1.21-7.37Z"/><path class="cls-1" d="M333.82,195.21c0,4-3.26,7.74-6.88,7.74-1.93,0-2.05,0-7.49-2.41a17.17,17.17,0,0,0-6.77-1.81c-2.9,0-4.71,1.21-4.71,3.15,0,2.29,1,2.9,9.31,6.15,7.85,3.14,10.39,4.58,13.54,7.72a16.08,16.08,0,0,1,4.36,11.11c0,11.72-9.53,19.83-23.43,19.84-12.08,0-22.72-6-22.72-12.79,0-4.11,3.62-8,7.36-8,2.06,0,2.06,0,9.19,3.13a17.51,17.51,0,0,0,7.13,1.93c2.9,0,5.19-1.82,5.19-4.11,0-2.06-1.33-3.14-6.77-5.19-8.82-3.26-11.24-4.46-14.26-6.63-4.24-3-6.05-7-6.06-12.81,0-11,9.78-19.21,22.82-19.23C324.39,183,333.82,188.69,333.82,195.21Z"/><path class="cls-1" d="M364.13,234.45c0,4.23-.12,5.32-1.2,7.37a8.82,8.82,0,0,1-15.35,0c-1.08-2.06-1.21-3-1.21-7.37l0-34.19c-4.71,0-7.37-.72-8.94-2.66a8.13,8.13,0,0,1-2.06-5.31,7.66,7.66,0,0,1,6.88-7.86,15.23,15.23,0,0,1,4.11-.24V175c0-4.22.12-5.31,1.21-7.25a8.88,8.88,0,0,1,15.34-.13c1.09,2.05,1.21,3,1.21,7.37v9.18h3.26c3.87,0,4.84.12,6.77,1.08a8,8,0,0,1,4,6.89,8.19,8.19,0,0,1-4,7c-1.93,1-2.78,1.09-6.76,1.09H364.1Z"/><path class="cls-1" d="M427.17,192.6c5.19,5.67,8,13.52,8,22.22,0,18.13-12.66,31.79-29.58,31.8A29.61,29.61,0,0,1,383.83,237c-5.33-5.79-8-13.4-8-22.58,0-17.64,12.91-31.43,29.7-31.44A29.57,29.57,0,0,1,427.17,192.6Zm-33.82,22c0,8.94,5.09,15.46,11.86,15.45,7,0,12.43-6.78,12.43-15.35s-5.45-15.22-12.46-15.22C398.54,199.51,393.35,206.16,393.35,214.62Z"/><path class="cls-1" d="M439.94,193.44c0-6.17,3.49-10.16,8.93-10.16,4,0,6.89,2.05,8.82,6.27,4.95-5,8.09-6.65,12.2-6.65a9.08,9.08,0,0,1,9.07,9.17c0,4.23-1.81,5.93-9.06,8.11-9.66,3.15-12.19,5.56-12.19,11.85l0,22.35c0,4.23-.12,5.31-1.2,7.37a8.82,8.82,0,0,1-15.35,0c-1.09-2-1.21-3-1.21-7.37Z"/><path class="cls-1" d="M495.6,220.57c2.66,7.13,7.13,10.51,14.14,10.5,4.23,0,5.31-.36,14.61-5a10.15,10.15,0,0,1,3.87-.85,7.59,7.59,0,0,1,7.13,7.24c0,7.25-12.91,14-26.56,14-19,0-32.27-12.78-32.29-30.9,0-18.85,12.9-32.76,30.42-32.77,16.55,0,29.49,13.39,29.51,30.66,0,5-2.29,7-7.73,7Zm23.3-12.1a19.17,19.17,0,0,0-2.54-6.52,11,11,0,0,0-9.06-4.58c-5.92,0-9.79,3.39-12.32,11.12Z"/><path class="cls-2" d="M321.07,138.22H214.54c-6.54,0-11.86-4-11.86-10.22V89.56c0-3.45,1.89-6.24,5.5-6.24s5.67,2.79,5.67,6.24v38.33h107.4V89.56c0-3.45,2.05-6.24,5.66-6.24a6,6,0,0,1,6,6.24V128c0,6.18-5.32,10.22-11.86,10.22m13.85-72.75a23,23,0,0,1-9.95,2c-7.24,0-19.51-4.58-23.33-10.08l-.06,0,0-.08a6.36,6.36,0,0,0-1.24-1.75,5.76,5.76,0,0,0-4.24-1.89,6,6,0,0,0-4.22,1.9l0,0a7.16,7.16,0,0,0-1.23,1.74l0,.05,0,.06c-3.8,5.46-15.67,10.38-22.8,10.43s-19.62-5.14-23.43-10.62l0,0-.05-.07a9.18,9.18,0,0,0-1.43-1.72v0a5.32,5.32,0,0,0-8-.2l0,0a9,9,0,0,0-1.49,2l0,.09-.06.08c-3.83,5.45-14.57,9.86-21.77,9.87a23.22,23.22,0,0,1-9.44-1.75h0l-.32-.17c-6.79-3.2-9.63-7.61-9.64-14.46a16.65,16.65,0,0,1,1.14-6,2.86,2.86,0,0,0,.1-.31l0-.11L208,14.07c1-2.52,2-3.8,5.52-3.8H320.82c1.55.08,3.76.29,5.21,4l15.82,30.61V45l.13.44a16.49,16.49,0,0,1,1.14,6c0,6.75-1.52,10.8-8.21,14.06m17.62-22a22.75,22.75,0,0,1,1.4,7.89c0,9.43-5.78,18.09-15.1,22.61A31.83,31.83,0,0,1,325,76.91c-8.6,0-22.35-4.94-27.83-10.75L296.05,65,295,66.16c-8.36,7.46-18.77,10-27.25,10.11S250,73.62,239.84,66.19L238.75,65l-1.09,1.16C232.16,72,218.73,77,210.17,77a32.44,32.44,0,0,1-12.88-2.42l-1.07-.51c-9.28-4.52-15.05-13.15-15.06-22.55a23.38,23.38,0,0,1,1.45-8l0-.06,0-.08a3.92,3.92,0,0,1,.13-.49L199,9.16V9.11C201,3.9,206.46,0,213.36,0H321.43c7.05,0,12.89,4.11,14.89,9.39v0l15.91,33.15a2,2,0,0,1,.2.58l0,.05s0,0,0,.07v.12l.05.1ZM292,105.14H243.11a5.15,5.15,0,1,1,0-10.28H292a5.15,5.15,0,1,1,0,10.28Z"/></svg>