<svg id="Calque_1" data-name="Calque 1" xmlns="http://www.w3.org/2000/svg" viewBox="0 0 750.23 162.68"><defs><style>.cls-1{fill:#7b7b7b;}.cls-2{fill:#f39c12;}</style></defs><title>superstore-logo</title><path class="cls-1" d="M266.19,67.06A8.31,8.31,0,0,1,258,75.64c-1.81,0-1.81,0-6.4-1.68a25.25,25.25,0,0,0-8.22-1.57c-5.44,0-9.3,2.79-9.3,6.65a5.46,5.46,0,0,0,2.54,4.59c2.18,1.57,2.18,1.57,9.91,3.62,17.77,4.82,25.38,12.42,25.39,25.47A27.43,27.43,0,0,1,265,131.21c-5.07,5.56-13.52,8.59-23.79,8.6-16.07,0-27.43-5.66-27.44-13.63,0-4.83,3.62-8.82,8-8.83,2.29,0,2.29,0,11.12,3.38a27,27,0,0,0,9.06,1.8c6.16,0,10.14-3.39,10.14-8.46a6.4,6.4,0,0,0-3.15-5.8c-2.29-1.57-4-2.17-12.81-4.82-9.42-2.77-13.17-4.58-16.55-8s-5.21-8.46-5.21-14.62c0-15,12.42-25.74,29.7-25.76C257,55.1,266.18,60.05,266.19,67.06Z"/><path class="cls-1" d="M331.37,113.76c0,6.28-1.32,10.88-4.33,14.62-5.07,6.53-13.89,10.53-23.19,10.53s-18.13-4-23.21-10.49c-3-3.74-4.36-8.33-4.36-14.61l0-26.34c0-4.23.12-5.32,1.2-7.37a8.82,8.82,0,0,1,15.35,0c1.08,2.06,1.21,3,1.21,7.37l0,24.17c0,3.74.73,5.55,2.78,7.61a10.23,10.23,0,0,0,14,0c2.05-2,2.77-3.86,2.77-7.61l0-24.16c0-4.23.12-5.32,1.2-7.37a8.82,8.82,0,0,1,15.35,0c1.09,2.06,1.21,3,1.21,7.37Z"/><path class="cls-1" d="M339,86.09c0-6.53,3.25-10.52,8.57-10.52,4.11,0,6.28,1.69,8.58,6.76,4.71-5.2,9.06-7.14,15.82-7.14,14.74,0,26.23,13.63,26.25,31.27,0,18.48-11.7,32.39-27.28,32.4-5.56,0-8.94-1.2-14.14-5.18v17.15c0,4.35-.11,5.44-1.2,7.37a8.82,8.82,0,0,1-15.34,0c-1.09-2.06-1.22-3-1.22-7.37Zm17.29,20.76c0,9.19,4.85,15.47,12,15.46,6.88,0,12.19-6.65,12.19-15.35s-5.33-15.22-12.22-15.22S356.29,98,356.29,106.85Z"/><path class="cls-1" d="M418.73,112.85c2.66,7.12,7.13,10.5,14.14,10.5,4.23,0,5.32-.37,14.62-5a10.06,10.06,0,0,1,3.86-.85,7.6,7.6,0,0,1,7.14,7.25c0,7.25-12.92,14-26.57,14-19,0-32.27-12.78-32.29-30.9,0-18.85,12.9-32.75,30.42-32.77,16.56,0,29.49,13.39,29.51,30.67,0,5-2.29,7-7.73,7Zm23.3-12.1a18.94,18.94,0,0,0-2.54-6.53,11.07,11.07,0,0,0-9.06-4.58c-5.92,0-9.79,3.39-12.32,11.13Z"/><path class="cls-1" d="M464.45,85.63c0-6.17,3.49-10.16,8.93-10.16,4,0,6.89,2,8.83,6.28,4.94-5,8.08-6.66,12.19-6.66a9.07,9.07,0,0,1,9.07,9.18c0,4.22-1.81,5.92-9.05,8.1-9.67,3.15-12.2,5.57-12.2,11.85l0,22.35c0,4.23-.12,5.32-1.2,7.37a8.82,8.82,0,0,1-15.35,0c-1.08-2-1.21-3-1.21-7.37Z"/><path class="cls-1" d="M547.62,87.25c0,4-3.25,7.74-6.88,7.74-1.93,0-2,0-7.49-2.41a17.17,17.17,0,0,0-6.77-1.81c-2.9,0-4.71,1.21-4.71,3.15,0,2.29,1,2.9,9.31,6.15,7.86,3.14,10.39,4.58,13.54,7.72A16.09,16.09,0,0,1,549,118.91c0,11.71-9.53,19.82-23.43,19.83-12.08,0-22.72-6-22.72-12.79,0-4.11,3.62-8,7.36-8,2.06,0,2.06,0,9.19,3.13a17.51,17.51,0,0,0,7.13,1.93c2.9,0,5.19-1.82,5.19-4.11,0-2.06-1.33-3.14-6.77-5.19-8.82-3.26-11.24-4.46-14.26-6.63-4.23-3-6.05-7-6.05-12.81,0-11,9.77-19.21,22.81-19.23C538.19,75.06,547.62,80.73,547.62,87.25Z"/><path class="cls-1" d="M577.93,126.49c0,4.23-.12,5.32-1.2,7.37a8.82,8.82,0,0,1-15.35,0c-1.08-2.06-1.21-3-1.21-7.37l0-34.19c-4.71,0-7.37-.72-8.94-2.65a8.17,8.17,0,0,1-2.06-5.32A7.66,7.66,0,0,1,556,76.49a15.23,15.23,0,0,1,4.11-.24V67.06c0-4.22.12-5.31,1.21-7.25a8.73,8.73,0,0,1,7.72-4.47,8.85,8.85,0,0,1,7.62,4.34c1.09,2,1.21,3,1.21,7.37v9.18h3.26c3.87,0,4.84.12,6.77,1.08a8,8,0,0,1,4,6.89,8.17,8.17,0,0,1-4,7c-1.93,1-2.78,1.09-6.76,1.09H577.9Z"/><path class="cls-1" d="M641,84.64c5.21,5.67,8,13.53,8,22.22,0,18.13-12.66,31.79-29.58,31.8A29.61,29.61,0,0,1,597.63,129c-5.32-5.79-8-13.4-8-22.58,0-17.64,12.91-31.43,29.7-31.44A29.57,29.57,0,0,1,641,84.64Zm-33.81,22c0,8.94,5.09,15.46,11.86,15.45,7,0,12.43-6.77,12.43-15.35S626,91.54,619,91.54C612.34,91.55,607.15,98.2,607.15,106.66Z"/><path class="cls-1" d="M653.74,85.48c0-6.17,3.49-10.16,8.93-10.16,4,0,6.89,2.05,8.82,6.28,5-5,8.09-6.66,12.2-6.66a9.07,9.07,0,0,1,9.07,9.18c0,4.22-1.81,5.92-9,8.1-9.67,3.15-12.2,5.56-12.2,11.85l0,22.35c0,4.23-.12,5.31-1.2,7.37a8.82,8.82,0,0,1-15.35,0c-1.09-2.05-1.21-3-1.21-7.37Z"/><path class="cls-1" d="M709.4,112.62c2.66,7.12,7.13,10.5,14.14,10.5,4.23,0,5.32-.37,14.62-5a10.06,10.06,0,0,1,3.86-.85,7.59,7.59,0,0,1,7.13,7.25c0,7.24-12.91,14-26.57,14-19,0-32.26-12.78-32.28-30.9,0-18.85,12.9-32.76,30.42-32.77,16.56,0,29.49,13.39,29.51,30.67,0,5-2.29,7-7.73,7Zm23.3-12.1A18.94,18.94,0,0,0,730.16,94a11,11,0,0,0-9.06-4.58c-5.92,0-9.79,3.39-12.32,11.12Z"/><path class="cls-2" d="M139.91,138.22H33.38c-6.54,0-11.86-4-11.86-10.22V89.56c0-3.45,1.89-6.24,5.5-6.24s5.67,2.79,5.67,6.24v38.33h107.4V89.56c0-3.45,2-6.24,5.66-6.24a6,6,0,0,1,6,6.24V128c0,6.18-5.32,10.22-11.86,10.22m13.85-72.75a23,23,0,0,1-9.95,2c-7.24,0-19.51-4.58-23.33-10.08l-.06,0,0-.08a6.36,6.36,0,0,0-1.24-1.75,5.76,5.76,0,0,0-4.24-1.89,6,6,0,0,0-4.22,1.9l0,0a7.16,7.16,0,0,0-1.23,1.74l0,.05,0,.06c-3.8,5.46-15.67,10.38-22.8,10.43S66.93,62.7,63.12,57.22l0,0,0-.07a9.18,9.18,0,0,0-1.43-1.72v0a5.32,5.32,0,0,0-8-.2l0,0a9,9,0,0,0-1.49,2l0,.09-.06.08c-3.83,5.45-14.57,9.86-21.77,9.87a23.22,23.22,0,0,1-9.44-1.75h0l-.32-.17c-6.79-3.2-9.63-7.61-9.64-14.46a16.65,16.65,0,0,1,1.14-6,2.86,2.86,0,0,0,.1-.31l0-.11L26.85,14.07c1-2.52,2-3.8,5.52-3.8H139.66c1.55.08,3.76.29,5.21,4l15.82,30.61V45l.13.44a16.71,16.71,0,0,1,1.14,6c0,6.75-1.52,10.8-8.21,14.06m17.62-22a22.75,22.75,0,0,1,1.4,7.89c0,9.43-5.79,18.09-15.1,22.61a31.83,31.83,0,0,1-13.86,2.91c-8.6,0-22.35-4.94-27.83-10.75L114.89,65l-1.09,1.14c-8.36,7.46-18.77,10-27.25,10.11S68.84,73.62,58.68,66.19L57.59,65,56.5,66.19C51,72,37.57,77,29,77a32.44,32.44,0,0,1-12.88-2.42l-1.07-.51C5.78,69.53,0,60.9,0,51.5a23.38,23.38,0,0,1,1.45-8l0-.06,0-.08a3.92,3.92,0,0,1,.13-.49L17.81,9.16V9.11C19.79,3.9,25.3,0,32.2,0H140.27c7,0,12.89,4.11,14.89,9.39v0l15.91,33.15a2,2,0,0,1,.2.58l0,.05s0,0,0,.07v.12l0,.1Zm-60.56,61.64H62a5.15,5.15,0,1,1,0-10.28h48.87a5.15,5.15,0,1,1,0,10.28Z"/></svg>