<svg id="Calque_1" data-name="Calque 1" xmlns="http://www.w3.org/2000/svg" viewBox="0 0 555.638 146.431"><defs><style>.cls-1{fill:#eceff1;}</style></defs><title>liaison-logo-dark-mode</title><path class="cls-1" d="M296.625,551.484c6.5,0,8.077.19,11.229,1.764,3.942,1.966,6.7,6.889,6.708,11.617,0,4.925-2.75,9.851-6.688,11.825-3.151,1.578-4.53,1.776-11.228,1.782l-35.655.028c-10.637.009-13.4-.777-17.733-4.911-4.141-4.33-4.93-7.088-4.939-17.922l-.072-90.419c-.006-7.289.386-9.061,1.959-12.609a15.4,15.4,0,0,1,13.192-7.5c5.319,0,10.837,3.143,13.008,7.474,1.776,3.545,1.974,5.121,1.98,12.606l.069,86.282Z" transform="translate(-238.247 -433.921)"/><path class="cls-1" d="M355.245,450.774a16.843,16.843,0,1,1-33.686.027,16.843,16.843,0,0,1,33.686-.027ZM323.763,496.5c-.006-6.894.19-8.667,1.96-12.018,2.163-4.335,7.283-7.294,12.6-7.3,5.121,0,10.245,2.947,12.416,7.278,1.776,3.348,1.974,4.924,1.979,12.016l.051,64.021c.006,6.9-.189,8.668-1.959,12.018-2.164,4.336-7.284,7.295-12.405,7.3-5.319,0-10.443-2.946-12.614-7.279-1.775-3.347-1.973-4.923-1.979-12.015Z" transform="translate(-238.247 -433.921)"/><path class="cls-1" d="M461.392,562.581c.008,10.243-5.9,17.143-14.564,17.149-6.894.006-11.625-3.733-14.586-11.413-7.282,9.067-13.189,12.027-23.826,12.035a42.282,42.282,0,0,1-28.573-11.008q-17.151-15.057-17.172-41.355c-.012-15.956,4.706-27.976,15.138-38.228,8.661-8.675,18.9-13.214,30.129-13.223,10.244-.008,16.353,2.942,24.633,11.406,3.146-7.685,7.477-10.84,14.372-10.846a14.424,14.424,0,0,1,14.392,14.763Zm-69.763-34.418c.013,15.168,7.9,25.208,20.114,25.2,11.819-.009,19.888-10.258,19.876-25.033s-8.1-24.814-20.113-24.8C399.687,503.533,391.618,513.585,391.629,528.163Z" transform="translate(-238.247 -433.921)"/><path class="cls-1" d="M508.481,450.652a16.843,16.843,0,1,1-33.686.027,16.843,16.843,0,0,1,33.686-.027ZM477,496.379c0-6.9.19-8.668,1.96-12.018,2.164-4.335,7.283-7.3,12.6-7.3,5.122,0,10.246,2.947,12.417,7.279,1.775,3.347,1.973,4.923,1.979,12.015l.051,64.022c0,6.895-.19,8.667-1.96,12.018-2.164,4.335-7.283,7.294-12.405,7.3-5.319,0-10.443-2.946-12.613-7.278-1.776-3.348-1.974-4.923-1.98-12.015Z" transform="translate(-238.247 -433.921)"/><path class="cls-1" d="M590.306,496.289c0,6.5-5.309,12.611-11.219,12.616-3.151,0-3.348,0-12.216-3.93-4.336-1.967-8.079-2.949-11.034-2.946-4.728,0-7.681,1.976-7.679,5.128,0,3.742,1.58,4.726,15.176,10.034,12.81,5.112,16.948,7.472,22.074,12.59a26.143,26.143,0,0,1,7.106,18.117c.015,19.108-15.536,32.319-38.19,32.337-19.7.016-37.042-9.82-37.051-20.851,0-6.7,5.9-13.006,12-13.011,3.349,0,3.349,0,14.976,5.109,4.729,2.164,8.474,3.146,11.625,3.143,4.728,0,8.468-2.961,8.465-6.7,0-3.349-2.171-5.12-11.038-8.462-14.385-5.307-18.326-7.274-23.254-10.816-6.9-4.919-9.859-11.417-9.866-20.873-.014-17.926,15.932-31.334,37.207-31.351C574.925,476.405,590.3,485.651,590.306,496.289Z" transform="translate(-238.247 -433.921)"/><path class="cls-1" d="M680.623,492.08c8.478,9.251,13.019,22.052,13.03,36.235.023,29.549-20.643,51.826-48.221,51.847a48.33,48.33,0,0,1-35.472-15.73c-8.675-9.449-13.019-21.856-13.03-36.827-.024-28.761,21.037-51.235,48.419-51.256A48.224,48.224,0,0,1,680.623,492.08Zm-55.129,35.9c.011,14.577,8.294,25.208,19.325,25.2,11.426-.009,20.281-11.048,20.27-25.034-.011-13.789-8.884-24.813-20.31-24.8C633.945,503.345,625.483,514.187,625.494,527.976Z" transform="translate(-238.247 -433.921)"/><path class="cls-1" d="M703.413,493.834c-.008-10.244,5.9-16.946,14.761-16.953,6.5,0,10.639,2.947,13.4,10.036,8.464-7.887,15.357-10.65,26.585-10.659,10.047-.008,18.52,2.94,25.222,8.647,7.688,6.889,10.452,13.978,10.463,27.768l.038,47.474c0,6.895-.191,8.668-1.961,12.018-2.163,4.336-7.282,7.3-12.4,7.3-5.319,0-10.443-2.946-12.613-7.279-1.776-3.347-1.974-4.922-1.98-12.014l-.032-40.58c-.01-11.229-6.319-18.316-16.168-18.308-9.259.008-16.345,7.5-16.337,17.152l.033,41.762c.006,6.895-.19,8.667-1.96,12.017-2.163,4.336-7.282,7.3-12.4,7.3-5.319,0-10.443-2.947-12.614-7.28-1.776-3.347-1.973-4.922-1.979-12.014Z" transform="translate(-238.247 -433.921)"/></svg>