<svg id="Layer_1" data-name="Layer 1" xmlns="http://www.w3.org/2000/svg" viewBox="0 0 348.181 279.694"><defs><style>.cls-1{fill:#ff4081;}.cls-2{fill:#aeea00;}.cls-3{fill:#03a9f4;}</style></defs><title>broken-heart</title><rect class="cls-1" x="35.398" width="28.061" height="28.061"/><rect class="cls-1" x="70.796" width="28.061" height="28.061"/><rect class="cls-1" x="106.194" width="28.061" height="28.061"/><rect class="cls-1" x="213.157" width="28.061" height="28.061"/><rect class="cls-1" x="248.555" width="28.061" height="28.061"/><rect class="cls-1" x="283.953" width="28.061" height="28.061"/><rect class="cls-1" y="36.167" width="28.061" height="28.061"/><rect class="cls-1" x="35.398" y="36.167" width="28.061" height="28.061"/><rect class="cls-1" x="70.796" y="36.167" width="28.061" height="28.061"/><rect class="cls-1" x="106.194" y="36.167" width="28.061" height="28.061"/><rect class="cls-1" x="177.759" y="36.167" width="28.061" height="28.061"/><rect class="cls-1" x="213.157" y="36.167" width="28.061" height="28.061"/><rect class="cls-1" x="248.555" y="36.167" width="28.061" height="28.061"/><rect class="cls-1" x="283.953" y="36.167" width="28.061" height="28.061"/><rect class="cls-1" x="320.12" y="36.167" width="28.061" height="28.061"/><rect class="cls-1" y="72.335" width="28.061" height="28.061"/><rect class="cls-1" x="35.398" y="72.335" width="28.061" height="28.061"/><rect class="cls-1" x="70.796" y="72.335" width="28.061" height="28.061"/><rect class="cls-1" x="142.361" y="72.335" width="28.061" height="28.061"/><rect class="cls-1" x="177.759" y="72.335" width="28.061" height="28.061"/><rect class="cls-1" x="213.157" y="72.335" width="28.061" height="28.061"/><rect class="cls-1" x="248.555" y="72.335" width="28.061" height="28.061"/><rect class="cls-1" x="283.953" y="72.335" width="28.061" height="28.061"/><rect class="cls-1" x="320.12" y="72.335" width="28.061" height="28.061"/><rect class="cls-2" y="107.733" width="28.061" height="28.061"/><rect class="cls-2" x="35.398" y="107.733" width="28.061" height="28.061"/><rect class="cls-2" x="70.796" y="107.733" width="28.061" height="28.061"/><rect class="cls-2" x="142.361" y="107.733" width="28.061" height="28.061"/><rect class="cls-2" x="177.759" y="107.733" width="28.061" height="28.061"/><rect class="cls-2" x="213.157" y="107.733" width="28.061" height="28.061"/><rect class="cls-2" x="248.555" y="107.733" width="28.061" height="28.061"/><rect class="cls-2" x="283.953" y="107.733" width="28.061" height="28.061"/><rect class="cls-2" x="320.12" y="107.733" width="28.061" height="28.061"/><rect class="cls-2" x="35.398" y="143.9" width="28.061" height="28.061"/><rect class="cls-2" x="70.796" y="143.9" width="28.061" height="28.061"/><rect class="cls-2" x="106.194" y="143.9" width="28.061" height="28.061"/><rect class="cls-2" x="177.759" y="143.9" width="28.061" height="28.061"/><rect class="cls-2" x="213.157" y="143.9" width="28.061" height="28.061"/><rect class="cls-2" x="248.555" y="143.9" width="28.061" height="28.061"/><rect class="cls-2" x="283.953" y="143.9" width="28.061" height="28.061"/><rect class="cls-3" x="70.796" y="180.068" width="28.061" height="28.061"/><rect class="cls-3" x="106.194" y="180.068" width="28.061" height="28.061"/><rect class="cls-3" x="142.361" y="180.068" width="28.061" height="28.061"/><rect class="cls-3" x="213.157" y="180.068" width="28.061" height="28.061"/><rect class="cls-3" x="248.555" y="180.068" width="28.061" height="28.061"/><rect class="cls-3" x="106.194" y="215.466" width="28.061" height="28.061"/><rect class="cls-3" x="177.759" y="215.466" width="28.061" height="28.061"/><rect class="cls-3" x="213.157" y="215.466" width="28.061" height="28.061"/><rect class="cls-3" x="177.759" y="251.633" width="28.061" height="28.061"/></svg>