<svg xmlns="http://www.w3.org/2000/svg" viewBox="0 0 516.939 217.364"><defs><style>.a{fill:#eceff1;}.b{fill:#ff4081;}.c{fill:#03a9f4;}.d{fill:#aeea00;}</style></defs><title>layr-logo-with-icon-dark-mode</title><path class="a" d="M234.27,148.34c6.5,0,8.077.191,11.23,1.764,3.941,1.967,6.7,6.89,6.707,11.618,0,4.924-2.75,9.851-6.688,11.825-3.151,1.578-4.529,1.776-11.227,1.781l-35.655.028c-10.638.009-13.4-.776-17.734-4.91-4.14-4.33-4.93-7.088-4.939-17.922l-.072-90.419c-.006-7.289.386-9.062,1.96-12.609A15.4,15.4,0,0,1,191.044,42c5.319,0,10.837,3.143,13.007,7.475,1.776,3.545,1.975,5.12,1.981,12.606l.069,86.282Z"/><path class="a" d="M347.684,159.479c.008,10.243-5.9,17.142-14.564,17.149-6.894.006-11.625-3.734-14.586-11.414-7.282,9.067-13.189,12.027-23.826,12.036a42.279,42.279,0,0,1-28.573-11.009q-17.151-15.056-17.172-41.354c-.012-15.956,4.706-27.977,15.138-38.229,8.661-8.674,18.9-13.213,30.129-13.222,10.244-.008,16.353,2.941,24.633,11.406C322.009,77.156,326.34,74,333.235,74a14.424,14.424,0,0,1,14.392,14.763Zm-69.763-34.418c.013,15.168,7.9,25.208,20.114,25.2,11.819-.009,19.888-10.259,19.876-25.033s-8.1-24.815-20.113-24.8C285.979,100.431,277.91,110.483,277.921,125.061Z"/><path class="a" d="M417.125,87.718c3.931-10.247,7.868-13.8,15.354-13.8,8.077-.006,14.779,6.489,14.786,13.975,0,3.546-.391,4.728-2.947,11.034L400.474,204.153c-4.327,10.05-7.87,13.2-15.355,13.211-7.683.006-14.386-6.293-14.392-13.778,0-3.35.391-4.531,2.946-10.837l11.4-26.6L356.46,98.6c-2.566-5.908-2.961-7.483-2.964-10.832-.006-7.486,6.687-13.8,14.567-13.8,7.289-.006,11.034,3.34,15.179,13.58l16.975,42.931Z"/><path class="a" d="M453.313,90.447c-.008-10.047,5.7-16.552,14.564-16.559,6.5-.005,11.231,3.34,14.388,10.232,8.07-8.083,13.19-10.845,19.887-10.85a14.8,14.8,0,0,1,14.787,14.959c.006,6.895-2.947,9.655-14.764,13.21-15.755,5.135-19.888,9.078-19.881,19.321l.03,36.444c0,6.895-.19,8.667-1.96,12.017-2.164,4.336-7.283,7.3-12.4,7.3-5.319,0-10.443-2.947-12.613-7.28-1.776-3.347-1.974-4.923-1.98-12.014Z"/><rect class="b" y="42.486" width="132.773" height="26.973"/><rect class="c" y="148.572" width="132.773" height="26.973"/><rect class="d" y="85.108" width="132.773" height="48.205" rx="14.119"/></svg>