<svg xmlns="http://www.w3.org/2000/svg" viewBox="0 0 1024 161"><defs><style>.a{fill:#90a4ae;}.b{fill:#03a9f4;}</style></defs><title>low-level</title><path class="a" d="M270.265,64.729l4.542-11.314c1.3-3.122,2.336-4.032,4.547-4.034a4.257,4.257,0,0,1,4.163,4.027,7.129,7.129,0,0,1-.778,3.12L279.5,64.722l6.24-.006c3.9,0,5.721,1.3,5.723,4.156,0,2.99-1.816,4.292-5.716,4.3l-9.881.008L270.024,87.61l6.89-.006c3.64,0,5.461,1.3,5.463,4.026,0,2.86-1.816,4.162-5.457,4.165l-10.14.008-4.671,11.7c-1.168,2.991-2.337,3.9-4.417,3.9a4.164,4.164,0,0,1-4.163-4.027,6.693,6.693,0,0,1,.777-2.991l3.374-8.583-14.431.012L238.578,107.4c-1.3,2.991-2.336,4.032-4.546,4.034a4.3,4.3,0,0,1-4.294-4.157c0-.91.129-1.3.908-2.991l3.243-8.453-6.631.005c-3.639,0-5.461-1.3-5.463-4.155,0-2.73,1.817-4.032,5.457-4.035l10.27-.008L243.361,73.2l-6.89.005c-3.77,0-5.591-1.3-5.594-4.286,0-2.859,1.817-4.161,5.587-4.164l10.14-.008L251.276,53.3c1.167-2.992,2.336-3.9,4.416-3.9a4.164,4.164,0,0,1,4.164,4.027,8.018,8.018,0,0,1-.777,3.12l-3.5,8.194Zm-23.772,22.9,14.561-.012,5.838-14.435-14.56.011Z"/><path class="b" d="M338.769,105.626c4.29,0,5.33.125,7.411,1.164a8.978,8.978,0,0,1,.012,15.47c-2.079,1.042-2.989,1.173-7.409,1.177l-23.531.018c-7.02.006-8.841-.512-11.7-3.241-2.732-2.858-3.254-4.677-3.259-11.827l-.048-59.673c0-4.81.255-5.98,1.293-8.321a10.164,10.164,0,0,1,8.706-4.947,9.944,9.944,0,0,1,8.584,4.933c1.173,2.339,1.3,3.379,1.307,8.319l.046,56.943Z"/><path class="b" d="M407.532,66.569c5.6,6.106,8.592,14.554,8.6,23.914.015,19.5-13.623,34.2-31.824,34.217A31.893,31.893,0,0,1,360.9,114.318c-5.726-6.235-8.592-14.423-8.6-24.3-.015-18.981,13.883-33.812,31.954-33.826A31.828,31.828,0,0,1,407.532,66.569Zm-36.383,23.69c.008,9.621,5.474,16.637,12.754,16.631,7.541-.007,13.386-7.291,13.378-16.522-.007-9.1-5.863-16.376-13.4-16.369C376.727,74,371.142,81.159,371.149,90.259Z"/><path class="b" d="M494.6,66.369c2.205-7.411,4.8-10.014,10.133-10.018a9.633,9.633,0,0,1,9.628,9.353c0,1.82-.258,2.99-1.425,6.5L499.45,110.7c-3.5,10.014-6.879,13.527-13.119,13.532-5.331,0-8.583-2.854-11.059-10.132l-8.209-23.915-6.614,20.547c-3.242,10.143-6.49,13.525-12.6,13.53-5.33,0-9.363-3.5-11.709-10.131l-14.723-41.98c-1.434-3.9-1.564-4.548-1.566-6.628a9.385,9.385,0,0,1,9.483-9.109c5.331,0,7.933,2.594,10.148,9.873l8.474,28.464,9.336-29.519c1.945-6.242,4.8-8.713,10-8.718,4.681,0,7.543,2.594,9.5,8.7l9.384,29.374Z"/><path class="b" d="M561.844,105.447c4.29,0,5.331.126,7.411,1.164a8.978,8.978,0,0,1,.013,15.471c-2.08,1.042-2.989,1.172-7.409,1.176l-23.531.018c-7.02.006-8.841-.512-11.7-3.24-2.732-2.858-3.254-4.678-3.26-11.828l-.048-59.672c0-4.81.255-5.98,1.293-8.322a10.167,10.167,0,0,1,8.707-4.946A9.943,9.943,0,0,1,541.9,40.2c1.172,2.339,1.3,3.379,1.307,8.319l.045,56.942Z"/><path class="b" d="M595.921,96.58c2.866,7.668,7.679,11.3,15.219,11.3,4.55,0,5.72-.394,15.727-5.342a10.817,10.817,0,0,1,4.159-.913,8.166,8.166,0,0,1,7.677,7.794c.006,7.8-13.9,15.092-28.589,15.1-20.411.015-34.723-13.753-34.739-33.254-.016-20.281,13.883-35.243,32.733-35.258,17.811-.014,31.733,14.4,31.748,33,0,5.33-2.464,7.542-8.314,7.547ZM621,83.559a20.627,20.627,0,0,0-2.735-7.018,11.89,11.89,0,0,0-9.755-4.932c-6.37.005-10.527,3.648-13.25,11.971Z"/><path class="b" d="M683.087,66.088c2.464-7.412,5.192-9.884,10.392-9.888,5.331,0,9.884,4.412,9.888,9.483,0,2.08-.387,3.77-1.814,7.151l-16.218,40.705c-3.244,8.193-5.842,10.535-11.432,10.539-5.2,0-8.843-2.853-11.318-9.221L645.651,72.749c-1.433-3.509-1.824-5.069-1.826-7.149a9.662,9.662,0,0,1,9.743-9.368c5.2,0,7.8,2.464,10.278,9.872L673.489,94.7Z"/><path class="b" d="M728.051,96.474c2.866,7.668,7.679,11.3,15.22,11.3,4.55,0,5.72-.394,15.726-5.343a10.821,10.821,0,0,1,4.159-.913,8.166,8.166,0,0,1,7.677,7.8c.006,7.8-13.9,15.09-28.589,15.1-20.411.017-34.723-13.752-34.738-33.253-.016-20.281,13.882-35.242,32.733-35.257,17.811-.014,31.733,14.405,31.748,32.995,0,5.331-2.464,7.543-8.315,7.547Zm25.081-13.02a20.622,20.622,0,0,0-2.736-7.019,11.893,11.893,0,0,0-9.754-4.932c-6.371,0-10.528,3.648-13.251,11.971Z"/><path class="b" d="M801.59,111.235c0,4.551-.125,5.721-1.294,7.932a9.489,9.489,0,0,1-16.51.013c-1.172-2.209-1.3-3.249-1.307-7.929L782.423,40.4c0-4.55.125-5.72,1.293-7.8a9.407,9.407,0,0,1,8.317-4.817,9.506,9.506,0,0,1,8.194,4.674c1.172,2.209,1.3,3.249,1.307,7.929Z"/></svg>