<svg xmlns="http://www.w3.org/2000/svg" viewBox="0 0 1024 161"><defs><style>.a{fill:#90a4ae;}.b{fill:#aeea00;}</style></defs><title>extension</title><path class="a" d="M174.813,64.805l4.542-11.314c1.3-3.121,2.337-4.032,4.547-4.033a4.255,4.255,0,0,1,4.163,4.026,7.128,7.128,0,0,1-.777,3.121L184.044,64.8l6.24,0c3.9,0,5.721,1.295,5.724,4.155,0,2.99-1.817,4.292-5.717,4.3l-9.88.008-5.839,14.436,6.89-.006c3.641,0,5.462,1.3,5.464,4.026,0,2.859-1.817,4.161-5.457,4.164l-10.14.008-4.672,11.7c-1.167,2.992-2.336,3.9-4.416,3.9a4.165,4.165,0,0,1-4.164-4.027,6.7,6.7,0,0,1,.778-2.991l3.373-8.582L147.8,95.9l-4.671,11.574c-1.3,2.991-2.336,4.032-4.546,4.034a4.3,4.3,0,0,1-4.294-4.156c0-.911.129-1.3.908-2.992l3.243-8.452-6.63,0c-3.64,0-5.461-1.3-5.464-4.156,0-2.73,1.817-4.031,5.458-4.034l10.27-.009,5.838-14.435-6.89.006c-3.77,0-5.591-1.3-5.594-4.286,0-2.86,1.817-4.162,5.587-4.164l10.141-.009,4.671-11.444c1.168-2.991,2.337-3.9,4.417-3.9A4.163,4.163,0,0,1,164.4,53.5a8.007,8.007,0,0,1-.777,3.121l-3.5,8.193Zm-23.772,22.9,14.561-.012,5.838-14.435-14.56.012Z"/><path class="b" d="M287.706,80.055c.022,27.041-17.254,45.646-42.475,45.666-26.131.021-43.176-18.3-43.2-46.377-.011-13.91,5.05-26.135,14.144-34.073A42.738,42.738,0,0,1,244.9,34.588C270.25,34.568,287.685,53.014,287.706,80.055Zm-64.483-.728c.014,17.421,8.473,28.594,21.864,28.584,13-.011,21.442-11.068,21.428-27.839S258.043,52.388,245.042,52.4C232.172,52.409,223.21,63.336,223.223,79.327Z"/><path class="b" d="M298.782,67.956c-.006-7.02,3.5-11.313,9.22-11.317,4.421,0,6.763,1.814,9.237,7.273,5.066-5.595,9.744-7.679,17.024-7.684,15.861-.013,28.223,14.668,28.238,33.648.016,19.891-12.582,34.852-29.353,34.864-5.98.005-9.621-1.292-15.214-5.577l.014,18.461c0,4.68-.126,5.85-1.294,7.931a9.487,9.487,0,0,1-16.51.012c-1.172-2.209-1.3-3.248-1.307-7.927ZM317.39,90.3c.007,9.881,5.213,16.636,12.883,16.631,7.411-.007,13.125-7.162,13.118-16.522-.008-9.23-5.733-16.376-13.143-16.369C322.708,74.047,317.382,80.812,317.39,90.3Z"/><path class="b" d="M389.765,96.745c2.865,7.668,7.679,11.3,15.219,11.3,4.55,0,5.72-.394,15.726-5.342a10.826,10.826,0,0,1,4.16-.913,8.165,8.165,0,0,1,7.676,7.794c.007,7.8-13.9,15.091-28.588,15.1-20.411.016-34.723-13.752-34.739-33.253C369.2,71.15,383.1,56.188,401.952,56.173c17.811-.014,31.733,14.405,31.748,33,0,5.33-2.464,7.542-8.314,7.547Zm25.08-13.021a20.6,20.6,0,0,0-2.736-7.018,11.893,11.893,0,0,0-9.754-4.933c-6.37.006-10.527,3.649-13.251,11.972Z"/><path class="b" d="M444.158,67.71c-.006-6.76,3.891-11.183,9.741-11.188,4.29,0,7.022,1.944,8.846,6.623,5.586-5.205,10.134-7.028,17.545-7.034,6.63-.006,12.222,1.94,16.645,5.706,5.074,4.546,6.9,9.225,6.9,18.326l.025,31.331c0,4.55-.125,5.72-1.294,7.931a9.488,9.488,0,0,1-16.51.013c-1.172-2.209-1.3-3.249-1.307-7.929l-.021-26.781c-.006-7.41-4.17-12.087-10.67-12.082-6.11,0-10.787,4.949-10.782,11.319l.022,27.561c0,4.551-.125,5.721-1.293,7.932a9.489,9.489,0,0,1-16.511.013c-1.171-2.209-1.3-3.249-1.306-7.93Z"/><path class="b" d="M571.075,47.2a8.941,8.941,0,0,1-8.833,9.237c-1.95,0-1.95,0-6.891-1.814a27.254,27.254,0,0,0-8.842-1.683c-5.85,0-10.008,3-10,7.158a5.894,5.894,0,0,0,2.734,4.938c2.342,1.688,2.342,1.688,10.664,3.892,19.115,5.184,27.311,13.368,27.323,27.408a29.586,29.586,0,0,1-7.394,19.9c-5.456,5.985-14.554,9.242-25.6,9.251-17.291.014-29.516-6.087-29.523-14.667,0-5.2,3.893-9.493,8.573-9.5,2.47,0,2.47,0,11.963,3.631a28.958,28.958,0,0,0,9.752,1.942c6.631-.006,10.918-3.649,10.913-9.109a6.888,6.888,0,0,0-3.385-6.238c-2.471-1.688-4.292-2.337-13.785-5.189-10.143-2.982-14.174-4.929-17.817-8.566-3.643-3.507-5.6-9.1-5.6-15.727-.013-16.12,13.369-27.7,31.959-27.716C561.185,34.335,571.069,39.657,571.075,47.2Z"/><path class="b" d="M639.639,66.384c5.6,6.105,8.592,14.554,8.6,23.914.015,19.5-13.623,34.2-31.824,34.216a31.889,31.889,0,0,1-23.409-10.382c-5.726-6.236-8.592-14.423-8.6-24.3C584.391,70.848,598.289,56.016,616.36,56A31.825,31.825,0,0,1,639.639,66.384ZM603.257,90.073c.008,9.621,5.473,16.636,12.753,16.631,7.54-.006,13.386-7.291,13.378-16.522-.007-9.1-5.864-16.375-13.4-16.37C608.834,73.818,603.25,80.973,603.257,90.073Z"/><path class="b" d="M717.363,97.392c.006,6.761-1.42,11.7-4.667,15.735-5.455,7.024-14.942,11.322-24.952,11.33s-19.5-4.274-24.97-11.29c-3.253-4.028-4.688-8.967-4.693-15.728l-.022-28.34c0-4.551.125-5.721,1.293-7.932a9.49,9.49,0,0,1,16.511-.013c1.172,2.209,1.3,3.249,1.306,7.929l.021,26c0,4.031.785,5.98,3,8.188a11,11,0,0,0,15.08-.011c2.209-2.212,2.987-4.163,2.984-8.193l-.021-26c0-4.55.125-5.721,1.294-7.931a9.489,9.489,0,0,1,16.51-.014c1.173,2.21,1.3,3.249,1.307,7.929Z"/><path class="b" d="M730.765,67.22c0-6.63,3.761-10.923,9.611-10.927,4.291,0,7.413,2.2,9.5,6.752,5.326-5.335,8.705-7.157,13.125-7.16a9.765,9.765,0,0,1,9.758,9.872c0,4.55-1.944,6.372-9.743,8.718-10.4,3.389-13.126,5.991-13.12,12.751l.019,24.051c0,4.55-.125,5.72-1.294,7.931a9.489,9.489,0,0,1-16.511.013c-1.171-2.209-1.3-3.249-1.306-7.929Z"/><path class="b" d="M824.775,59.735a10.194,10.194,0,0,1,5.337,8.706c0,4.681-3.373,8.583-7.533,8.587-1.69,0-2.21-.129-6.892-1.945a18.63,18.63,0,0,0-6.891-1.424c-8.191.006-14.035,6.9-14.027,16.522.007,9.88,5.862,16.375,14.573,16.368a18.779,18.779,0,0,0,7.539-1.826c3.249-1.562,3.769-1.693,5.459-1.694,4.42,0,7.933,3.763,7.937,8.7a9.2,9.2,0,0,1-3.634,7.024c-4.548,3.384-11.956,5.6-19.106,5.605-9.361.007-17.164-3.366-23.15-9.861-6.115-6.625-8.721-13.9-8.73-24.564-.008-10.4,3.5-19.5,9.861-25.229a34.673,34.673,0,0,1,22.743-8.859A35.591,35.591,0,0,1,824.775,59.735Z"/><path class="b" d="M856.6,96.371c2.867,7.669,7.679,11.3,15.22,11.3,4.55,0,5.719-.394,15.726-5.342a10.823,10.823,0,0,1,4.16-.914,8.167,8.167,0,0,1,7.676,7.8c.006,7.8-13.9,15.091-28.59,15.1-20.41.016-34.722-13.753-34.737-33.254-.016-20.28,13.883-35.242,32.733-35.257,17.811-.014,31.733,14.405,31.747,33,0,5.33-2.464,7.543-8.314,7.548Zm25.081-13.02a20.572,20.572,0,0,0-2.737-7.018A11.89,11.89,0,0,0,869.19,71.4c-6.37,0-10.527,3.649-13.251,11.971Z"/></svg>