<svg xmlns="http://www.w3.org/2000/svg" viewBox="0 0 1024 161"><defs><style>.a{fill:#90a4ae;}.b{fill:#03a9f4;}</style></defs><title>typescript</title><path class="a" d="M228.485,64.762l4.541-11.314c1.3-3.121,2.337-4.031,4.547-4.033a4.256,4.256,0,0,1,4.164,4.026,7.162,7.162,0,0,1-.778,3.121l-3.244,8.193,6.241,0c3.9,0,5.721,1.3,5.723,4.156,0,2.99-1.817,4.291-5.717,4.294l-9.88.008-5.838,14.436,6.89-.006c3.64,0,5.461,1.3,5.463,4.026,0,2.859-1.817,4.161-5.457,4.164L225,95.836l-4.671,11.7c-1.168,2.991-2.337,3.9-4.417,3.9a4.164,4.164,0,0,1-4.163-4.027,6.68,6.68,0,0,1,.777-2.991l3.373-8.582-14.43.011L196.8,107.429c-1.3,2.991-2.337,4.032-4.547,4.034a4.3,4.3,0,0,1-4.293-4.156c0-.911.129-1.3.907-2.992l3.243-8.452-6.63,0c-3.64,0-5.461-1.3-5.463-4.156,0-2.73,1.817-4.031,5.457-4.034l10.27-.009,5.839-14.435-6.891.006c-3.77,0-5.59-1.3-5.593-4.286,0-2.86,1.817-4.162,5.587-4.164l10.14-.009L209.5,53.337c1.167-2.991,2.336-3.9,4.416-3.9a4.164,4.164,0,0,1,4.164,4.026,8.01,8.01,0,0,1-.778,3.121l-3.5,8.193Zm-23.772,22.9,14.56-.012,5.839-14.435-14.561.012Z"/><path class="b" d="M291.611,111.514c0,4.81-.255,5.98-1.293,8.32a10.034,10.034,0,0,1-17.291.014c-1.172-2.339-1.3-3.379-1.307-8.319l-.045-56.942-9.881.009c-4.29,0-5.331-.127-7.411-1.165a8.978,8.978,0,0,1-.013-15.47c2.08-1.042,2.989-1.173,7.41-1.176l39.261-.032c4.29,0,5.331.126,7.411,1.164a8.978,8.978,0,0,1,.013,15.471c-2.08,1.042-2.989,1.173-7.409,1.176l-9.491.008Z"/><path class="b" d="M348.408,65.707C351,58.944,353.6,56.6,358.542,56.6c5.33,0,9.753,4.282,9.757,9.222,0,2.341-.257,3.121-1.944,7.282l-28.936,69.446c-2.854,6.633-5.193,8.715-10.133,8.719-5.07,0-9.494-4.153-9.5-9.093,0-2.21.258-2.99,1.945-7.153l7.526-17.556L308.373,72.889c-1.694-3.9-1.954-4.939-1.956-7.149,0-4.94,4.413-9.1,9.613-9.108,4.81,0,7.282,2.2,10.017,8.962l11.2,28.332Z"/><path class="b" d="M376.189,67.894c0-7.02,3.5-11.312,9.222-11.317,4.42,0,6.761,1.814,9.235,7.273,5.066-5.595,9.745-7.679,17.025-7.684,15.86-.013,28.223,14.667,28.238,33.648.016,19.891-12.582,34.851-29.353,34.865-5.98,0-9.621-1.292-15.215-5.578l.014,18.461c0,4.679-.125,5.85-1.293,7.931a9.489,9.489,0,0,1-16.511.013c-1.172-2.209-1.3-3.249-1.306-7.929ZM394.8,90.24c.008,9.881,5.213,16.636,12.883,16.631,7.41-.006,13.126-7.162,13.118-16.522-.007-9.23-5.734-16.375-13.144-16.37C400.115,73.985,394.791,80.75,394.8,90.24Z"/><path class="b" d="M467.172,96.683c2.866,7.668,7.679,11.3,15.22,11.3,4.55,0,5.72-.394,15.726-5.342a10.821,10.821,0,0,1,4.159-.913,8.165,8.165,0,0,1,7.677,7.794c.006,7.8-13.9,15.091-28.589,15.1-20.41.017-34.722-13.752-34.738-33.253-.016-20.281,13.882-35.243,32.733-35.258,17.811-.014,31.733,14.405,31.748,33,0,5.33-2.464,7.542-8.315,7.547Zm25.081-13.021a20.624,20.624,0,0,0-2.736-7.018,11.888,11.888,0,0,0-9.754-4.932c-6.37,0-10.528,3.648-13.251,11.971Z"/><path class="b" d="M574.877,47.2a8.941,8.941,0,0,1-8.833,9.237c-1.95,0-1.95,0-6.892-1.815a27.268,27.268,0,0,0-8.841-1.682c-5.851,0-10.008,3-10,7.157a5.9,5.9,0,0,0,2.734,4.939c2.342,1.688,2.342,1.688,10.664,3.891,19.114,5.185,27.311,13.369,27.322,27.41a29.575,29.575,0,0,1-7.394,19.9c-5.455,5.985-14.553,9.242-25.6,9.251-17.29.014-29.515-6.087-29.522-14.667,0-5.2,3.892-9.493,8.573-9.5,2.47,0,2.47,0,11.963,3.631a28.958,28.958,0,0,0,9.752,1.942c6.63-.006,10.917-3.649,10.913-9.109a6.888,6.888,0,0,0-3.385-6.238c-2.471-1.688-4.292-2.337-13.785-5.189-10.143-2.982-14.174-4.929-17.817-8.566-3.643-3.507-5.6-9.1-5.6-15.726-.013-16.121,13.368-27.7,31.959-27.717C564.986,34.332,574.871,39.654,574.877,47.2Z"/><path class="b" d="M637.326,59.885a10.2,10.2,0,0,1,5.337,8.706c0,4.68-3.373,8.583-7.534,8.587-1.69,0-2.21-.129-6.892-1.945a18.63,18.63,0,0,0-6.891-1.424c-8.19.006-14.035,6.9-14.027,16.522.008,9.88,5.863,16.375,14.573,16.368a18.792,18.792,0,0,0,7.539-1.826c3.249-1.562,3.769-1.693,5.459-1.694,4.421,0,7.933,3.763,7.937,8.7a9.2,9.2,0,0,1-3.634,7.024c-4.548,3.384-11.956,5.6-19.107,5.6-9.36.008-17.163-3.366-23.148-9.861-6.116-6.626-8.722-13.9-8.73-24.565-.009-10.4,3.494-19.5,9.86-25.228A34.674,34.674,0,0,1,620.812,56,35.594,35.594,0,0,1,637.326,59.885Z"/><path class="b" d="M653.019,67.283c0-6.63,3.761-10.923,9.611-10.928,4.29,0,7.412,2.2,9.5,6.752,5.326-5.334,8.705-7.157,13.125-7.16a9.765,9.765,0,0,1,9.758,9.872c0,4.55-1.945,6.372-9.743,8.718-10.4,3.389-13.126,5.991-13.12,12.751l.019,24.051c0,4.55-.125,5.721-1.294,7.932a9.49,9.49,0,0,1-16.511.013c-1.171-2.209-1.3-3.249-1.306-7.93Z"/><path class="b" d="M723.56,38.885a11.116,11.116,0,1,1-10.93-11.041A11.071,11.071,0,0,1,723.56,38.885ZM702.783,69.063c0-4.55.126-5.72,1.294-7.931a9.488,9.488,0,0,1,16.51-.013c1.172,2.209,1.3,3.249,1.307,7.929l.033,42.251c0,4.551-.125,5.721-1.293,7.931a9.488,9.488,0,0,1-16.511.014c-1.171-2.209-1.3-3.249-1.306-7.93Z"/><path class="b" d="M736.113,67.606c-.006-7.02,3.5-11.313,9.22-11.317,4.421,0,6.763,1.814,9.237,7.273,5.066-5.595,9.744-7.679,17.024-7.685,15.861-.012,28.223,14.668,28.239,33.649.015,19.891-12.583,34.851-29.354,34.865-5.98,0-9.621-1.292-15.214-5.578l.014,18.461c0,4.68-.126,5.85-1.294,7.931a9.489,9.489,0,0,1-16.51.013c-1.172-2.209-1.3-3.249-1.307-7.929Zm18.608,22.346c.008,9.881,5.213,16.637,12.883,16.631,7.411-.006,13.125-7.161,13.118-16.521-.008-9.23-5.733-16.376-13.143-16.371C760.039,73.7,754.713,80.462,754.721,89.952Z"/><path class="b" d="M833.881,111.209c0,4.551-.125,5.721-1.294,7.932a9.489,9.489,0,0,1-16.511.013c-1.171-2.209-1.3-3.249-1.306-7.929l-.029-36.791c-5.071,0-7.931-.774-9.623-2.852a8.776,8.776,0,0,1-2.215-5.719,8.235,8.235,0,0,1,7.4-8.456,16.274,16.274,0,0,1,4.42-.264l-.008-9.88c0-4.55.125-5.721,1.294-7.8a9.4,9.4,0,0,1,8.316-4.816,9.505,9.505,0,0,1,8.194,4.673c1.172,2.209,1.3,3.249,1.306,7.929l.009,9.88,3.51,0c4.16,0,5.2.126,7.281,1.165a8.576,8.576,0,0,1,4.3,7.406,8.8,8.8,0,0,1-4.284,7.544c-2.079,1.041-2.989,1.172-7.28,1.176l-3.509,0Z"/></svg>