<svg xmlns="http://www.w3.org/2000/svg" viewBox="0 0 1024 161"><defs><style>.a{fill:#90a4ae;}.b{fill:#03a9f4;}</style></defs><title>unified-stack</title><path class="a" d="M156.465,64.82l4.541-11.314c1.3-3.121,2.337-4.032,4.547-4.034a4.258,4.258,0,0,1,4.164,4.027,7.15,7.15,0,0,1-.778,3.121L165.7,64.812l6.241,0c3.9,0,5.721,1.3,5.723,4.155,0,2.991-1.816,4.292-5.717,4.3l-9.88.008L156.224,87.7l6.89-.006c3.64,0,5.461,1.3,5.463,4.026,0,2.86-1.817,4.162-5.457,4.165l-10.14.008-4.671,11.7c-1.168,2.991-2.337,3.9-4.417,3.9a4.164,4.164,0,0,1-4.163-4.027,6.68,6.68,0,0,1,.777-2.991l3.373-8.583-14.43.012-4.671,11.574c-1.3,2.991-2.337,4.032-4.547,4.034a4.3,4.3,0,0,1-4.293-4.157c0-.91.128-1.3.907-2.991l3.243-8.453-6.63.006c-3.64,0-5.461-1.3-5.463-4.156,0-2.73,1.817-4.032,5.457-4.035l10.27-.008,5.839-14.435-6.891,0c-3.77,0-5.591-1.3-5.593-4.285,0-2.86,1.817-4.162,5.587-4.165l10.14-.008L137.476,53.4c1.167-2.992,2.336-3.9,4.416-3.9a4.166,4.166,0,0,1,4.164,4.027,8.014,8.014,0,0,1-.778,3.121l-3.5,8.193Zm-23.773,22.9,14.561-.012,5.839-14.435-14.561.012Z"/><path class="b" d="M261.458,85.407c.01,12.87-1.675,18.982-7,25.876-7.013,9.106-18.319,14.446-30.8,14.455-21.45.018-37.583-15.05-37.6-35.071l-.034-41.861c0-4.81.255-5.981,1.293-8.322a10.167,10.167,0,0,1,8.707-4.947,9.948,9.948,0,0,1,8.584,4.933c1.172,2.34,1.3,3.38,1.307,8.32l.031,39c.01,11.7,7.036,19.365,17.826,19.356a17.948,17.948,0,0,0,14.166-6.771c2.6-3.512,3.634-7.8,3.628-14.953l-.029-36.662c0-4.81.254-5.98,1.293-8.321a10.164,10.164,0,0,1,8.706-4.947,9.943,9.943,0,0,1,8.584,4.933c1.172,2.339,1.3,3.379,1.307,8.319Z"/><path class="b" d="M274.829,67.845c0-6.76,3.891-11.183,9.742-11.188,4.29,0,7.021,1.945,8.845,6.623,5.586-5.2,10.135-7.028,17.545-7.034,6.63-.005,12.223,1.94,16.645,5.707,5.074,4.546,6.9,9.225,6.906,18.325l.025,31.331c0,4.551-.126,5.721-1.294,7.932a9.49,9.49,0,0,1-16.511.013c-1.171-2.209-1.3-3.249-1.306-7.929L315.4,84.844c-.006-7.41-4.17-12.088-10.67-12.083-6.11.005-10.786,4.949-10.781,11.32l.022,27.561c0,4.55-.125,5.72-1.294,7.931a9.489,9.489,0,0,1-16.511.013c-1.171-2.209-1.3-3.249-1.306-7.929Z"/><path class="b" d="M369.187,39.169a11.115,11.115,0,1,1-22.23.018,11.115,11.115,0,0,1,22.23-.018ZM348.41,69.347c0-4.551.126-5.721,1.294-7.931a9.489,9.489,0,0,1,16.511-.014c1.172,2.209,1.3,3.249,1.306,7.929l.034,42.252c0,4.55-.125,5.72-1.294,7.931a9.489,9.489,0,0,1-16.511.013c-1.171-2.209-1.3-3.249-1.306-7.929Z"/><path class="b" d="M406.891,111.551c0,4.68-.125,5.85-1.293,7.931a9.488,9.488,0,0,1-16.511.014c-1.171-2.209-1.3-3.249-1.306-7.93l-.03-36.661h-.78c-4.16,0-5.33-.126-7.281-1.164a8.771,8.771,0,0,1-.012-15.08c2.079-1.042,2.989-1.173,7.28-1.177h.78l-.008-8.97c-.009-11.96,8.305-20.027,20.785-20.037,7.02,0,11.053,3.111,11.057,8.7,0,4.941-2.723,8.063-7.4,8.326-4.16.264-5.33,1.435-5.327,5.205l.006,6.76,3.381,0c4.16,0,5.2.127,7.28,1.165a8.77,8.77,0,0,1,.012,15.08c-2.079,1.042-2.989,1.173-7.279,1.176l-3.38,0Z"/><path class="b" d="M450.409,39.1a11.116,11.116,0,1,1-22.231.018,11.116,11.116,0,0,1,22.231-.018ZM429.632,69.282c0-4.551.126-5.72,1.294-7.931a9.489,9.489,0,0,1,16.511-.014c1.171,2.209,1.3,3.249,1.306,7.929l.033,42.252c0,4.55-.125,5.72-1.293,7.931a9.489,9.489,0,0,1-16.511.013c-1.171-2.209-1.3-3.249-1.306-7.929Z"/><path class="b" d="M479.755,96.673c2.866,7.668,7.679,11.3,15.22,11.3,4.55,0,5.72-.4,15.726-5.343a10.822,10.822,0,0,1,4.159-.914,8.167,8.167,0,0,1,7.677,7.8c.006,7.8-13.9,15.092-28.589,15.1-20.41.016-34.722-13.753-34.738-33.254-.016-20.28,13.882-35.242,32.733-35.256,17.811-.015,31.733,14.4,31.748,32.995,0,5.33-2.464,7.543-8.315,7.547Zm25.081-13.021a20.624,20.624,0,0,0-2.736-7.018,11.893,11.893,0,0,0-9.754-4.932c-6.37,0-10.528,3.648-13.251,11.971Z"/><path class="b" d="M575.494,40.564c0-4.55.126-5.721,1.294-7.931a9.487,9.487,0,0,1,16.51-.013c1.173,2.209,1.3,3.248,1.307,7.928l.058,72.673c0,6.89-3.5,10.924-9.612,10.928-4.68,0-7.281-2.074-9.236-7.533-4.025,5.594-9.094,7.938-16.5,7.944-8.71.006-16.384-4.277-21.851-11.943a40.96,40.96,0,0,1-7.168-22.745c-.008-10.141,4.664-20.675,11.679-26.79a29.441,29.441,0,0,1,18.065-7.035c5.72,0,10.272,1.682,15.475,5.968ZM549.4,89.207c.008,9.62,5.6,16.635,13.274,16.629,7.41,0,12.994-7.16,12.987-16.521-.007-9.23-5.6-16.376-13.014-16.37C555.109,72.951,549.4,79.977,549.4,89.207Z"/><path class="b" d="M662.39,47.125a8.941,8.941,0,0,1-8.833,9.237c-1.95,0-1.95,0-6.892-1.815a27.247,27.247,0,0,0-8.842-1.682c-5.85,0-10.008,3-10,7.157a5.892,5.892,0,0,0,2.734,4.939c2.342,1.688,2.342,1.688,10.664,3.892,19.114,5.185,27.311,13.368,27.322,27.408a29.586,29.586,0,0,1-7.394,19.9c-5.456,5.985-14.553,9.242-25.6,9.251-17.291.014-29.516-6.087-29.522-14.667,0-5.2,3.892-9.493,8.572-9.5,2.471,0,2.471,0,11.964,3.63a28.9,28.9,0,0,0,9.752,1.942c6.63,0,10.917-3.648,10.913-9.109a6.888,6.888,0,0,0-3.386-6.237c-2.471-1.688-4.292-2.337-13.784-5.189-10.143-2.982-14.175-4.928-17.818-8.566-3.643-3.507-5.6-9.1-5.6-15.726-.012-16.121,13.369-27.7,31.959-27.717C652.5,34.262,662.384,39.584,662.39,47.125Z"/><path class="b" d="M702.064,111.315c0,4.55-.126,5.721-1.294,7.932a9.49,9.49,0,0,1-16.511.013c-1.171-2.209-1.3-3.249-1.306-7.929l-.029-36.792c-5.07,0-7.931-.773-9.623-2.852a8.781,8.781,0,0,1-2.215-5.719,8.236,8.236,0,0,1,7.4-8.456,16.248,16.248,0,0,1,4.42-.263l-.008-9.881c0-4.55.125-5.72,1.294-7.8a9.408,9.408,0,0,1,8.316-4.817,9.5,9.5,0,0,1,8.194,4.674c1.172,2.209,1.3,3.248,1.307,7.929l.008,9.88,3.51,0c4.16,0,5.2.126,7.281,1.165a8.581,8.581,0,0,1,4.3,7.407,8.8,8.8,0,0,1-4.284,7.543c-2.079,1.042-2.99,1.173-7.28,1.176l-3.509,0Z"/><path class="b" d="M785.213,112.679c0,6.759-3.891,11.313-9.611,11.318-4.551,0-7.673-2.464-9.626-7.533-4.807,5.984-8.705,7.937-15.725,7.943a27.9,27.9,0,0,1-18.856-7.265q-11.319-9.936-11.333-27.292c-.008-10.53,3.105-18.463,9.99-25.228,5.716-5.726,12.473-8.721,19.884-8.727,6.76-.005,10.793,1.941,16.257,7.527,2.076-5.071,4.934-7.154,9.484-7.157a9.519,9.519,0,0,1,9.5,9.742Zm-46.04-22.714c.008,10.011,5.213,16.636,13.274,16.63,7.8-.007,13.125-6.771,13.117-16.522S760.221,73.7,752.291,73.7C744.49,73.71,739.165,80.345,739.173,89.965Z"/><path class="b" d="M844.554,59.719a10.2,10.2,0,0,1,5.337,8.706c0,4.68-3.373,8.584-7.534,8.587-1.69,0-2.211-.129-6.892-1.945a18.63,18.63,0,0,0-6.891-1.424c-8.19.006-14.035,6.9-14.027,16.522.008,9.88,5.863,16.376,14.573,16.368a18.815,18.815,0,0,0,7.54-1.825c3.248-1.563,3.768-1.693,5.458-1.695,4.42,0,7.933,3.764,7.938,8.7a9.2,9.2,0,0,1-3.635,7.023c-4.548,3.384-11.956,5.6-19.106,5.606-9.36.007-17.164-3.367-23.149-9.862-6.116-6.626-8.722-13.9-8.73-24.565-.009-10.4,3.494-19.5,9.86-25.228a34.667,34.667,0,0,1,22.744-8.858A35.581,35.581,0,0,1,844.554,59.719Z"/><path class="b" d="M879.641,111.173c0,4.55-.126,5.721-1.294,7.931a9.488,9.488,0,0,1-16.511.014c-1.173-2.209-1.3-3.249-1.307-7.93l-.056-70.852c0-4.55.125-5.72,1.294-7.931a9.487,9.487,0,0,1,16.51-.013c1.172,2.209,1.3,3.248,1.307,7.928l.03,38.352L897.15,60.717c3.767-3.9,5.716-4.945,8.706-4.947a9.351,9.351,0,0,1,9.369,9.483c0,2.86-1.166,4.811-5.194,8.585L898.21,85.288l16.657,20.657c3.254,4.027,4.165,5.847,4.167,8.447a9.685,9.685,0,0,1-9.743,9.5c-3.51,0-5.591-1.425-9.235-6.1L879.625,91.672Z"/></svg>