<svg xmlns="http://www.w3.org/2000/svg" viewBox="0 0 1024 161"><defs><style>.a{fill:#90a4ae;}.b{fill:#aeea00;}</style></defs><title>unopinionated</title><path class="a" d="M99.24,64.866l4.541-11.314c1.3-3.122,2.337-4.032,4.547-4.034a4.256,4.256,0,0,1,4.164,4.026,7.168,7.168,0,0,1-.778,3.122l-3.244,8.192,6.24,0c3.9,0,5.722,1.3,5.724,4.155,0,2.99-1.817,4.291-5.717,4.3l-9.88.008L99,87.747l6.89-.006c3.64,0,5.461,1.3,5.463,4.026,0,2.86-1.817,4.162-5.457,4.165l-10.141.008-4.67,11.7c-1.168,2.991-2.337,3.9-4.417,3.9a4.166,4.166,0,0,1-4.164-4.027,6.7,6.7,0,0,1,.778-2.991l3.373-8.583-14.43.011-4.671,11.575c-1.3,2.991-2.337,4.032-4.547,4.033a4.3,4.3,0,0,1-4.294-4.156c0-.91.13-1.3.908-2.991l3.243-8.453-6.63.006c-3.64,0-5.461-1.3-5.463-4.157,0-2.73,1.817-4.031,5.457-4.034l10.27-.008,5.839-14.436-6.891.006c-3.77,0-5.591-1.3-5.593-4.285,0-2.86,1.816-4.162,5.586-4.165l10.141-.008L80.25,53.44c1.168-2.991,2.337-3.9,4.417-3.9a4.165,4.165,0,0,1,4.164,4.026,8.007,8.007,0,0,1-.778,3.121l-3.5,8.193Zm-23.772,22.9,14.56-.012,5.839-14.435-14.561.011Z"/><path class="b" d="M204.232,85.453c.011,12.87-1.674,18.982-7,25.876-7.013,9.106-18.319,14.445-30.8,14.455-21.451.018-37.583-15.05-37.6-35.071L128.8,48.852c0-4.81.256-5.981,1.294-8.322a10.163,10.163,0,0,1,8.706-4.947,9.943,9.943,0,0,1,8.584,4.933c1.172,2.339,1.3,3.38,1.307,8.319l.031,39c.009,11.7,7.036,19.365,17.827,19.356a17.947,17.947,0,0,0,14.165-6.771c2.6-3.512,3.634-7.8,3.628-14.953l-.029-36.662c0-4.81.254-5.98,1.292-8.322a10.168,10.168,0,0,1,8.707-4.946,9.943,9.943,0,0,1,8.584,4.933c1.172,2.339,1.3,3.379,1.307,8.319Z"/><path class="b" d="M217.6,67.891c-.005-6.76,3.891-11.183,9.741-11.188,4.291,0,7.022,1.944,8.846,6.623,5.586-5.2,10.135-7.028,17.545-7.034,6.63-.005,12.222,1.94,16.645,5.707,5.074,4.545,6.9,9.225,6.905,18.325l.025,31.331c0,4.55-.125,5.72-1.293,7.931a9.489,9.489,0,0,1-16.511.014c-1.172-2.21-1.3-3.249-1.306-7.93l-.022-26.78c-.006-7.411-4.17-12.088-10.67-12.083-6.11,0-10.786,4.949-10.781,11.319l.022,27.562c0,4.55-.125,5.72-1.294,7.931a9.489,9.489,0,0,1-16.511.013c-1.171-2.209-1.3-3.249-1.306-7.929Z"/><path class="b" d="M342.574,66.621c5.594,6.106,8.592,14.554,8.6,23.914.016,19.5-13.623,34.2-31.823,34.217a31.893,31.893,0,0,1-23.41-10.382c-5.725-6.236-8.592-14.423-8.6-24.3-.015-18.981,13.884-33.812,31.954-33.827A31.827,31.827,0,0,1,342.574,66.621Zm-36.383,23.69c.008,9.621,5.474,16.636,12.754,16.63,7.54,0,13.385-7.291,13.377-16.521-.007-9.1-5.863-16.376-13.4-16.37C311.769,74.056,306.184,81.211,306.191,90.311Z"/><path class="b" d="M361.512,67.906c-.006-7.02,3.5-11.313,9.221-11.318,4.42,0,6.762,1.815,9.236,7.273,5.066-5.594,9.744-7.678,17.025-7.684,15.86-.012,28.222,14.668,28.238,33.649.016,19.891-12.583,34.851-29.353,34.864-5.981,0-9.622-1.292-15.215-5.577l.015,18.461c0,4.68-.126,5.85-1.294,7.931a9.49,9.49,0,0,1-16.511.013c-1.172-2.209-1.3-3.249-1.306-7.929ZM380.12,90.252c.008,9.88,5.213,16.636,12.884,16.63,7.411-.006,13.125-7.161,13.117-16.521-.007-9.23-5.732-16.376-13.143-16.37C385.438,74,380.113,80.762,380.12,90.252Z"/><path class="b" d="M456.623,39.1a11.116,11.116,0,1,1-10.931-11.042A11.072,11.072,0,0,1,456.623,39.1ZM435.846,69.277c0-4.55.125-5.721,1.293-7.932a9.49,9.49,0,0,1,16.511-.013c1.172,2.209,1.3,3.249,1.306,7.929l.034,42.252c0,4.55-.125,5.72-1.294,7.931a9.488,9.488,0,0,1-16.51.013c-1.172-2.209-1.3-3.249-1.307-7.929Z"/><path class="b" d="M469.175,67.69c-.006-6.76,3.891-11.183,9.742-11.188,4.29,0,7.021,1.944,8.845,6.623,5.586-5.2,10.134-7.028,17.545-7.034,6.63-.006,12.222,1.94,16.645,5.706,5.074,4.546,6.9,9.225,6.9,18.326l.025,31.331c0,4.55-.125,5.72-1.294,7.931a9.488,9.488,0,0,1-16.51.013c-1.172-2.209-1.3-3.249-1.307-7.929l-.021-26.781c-.006-7.41-4.17-12.087-10.67-12.082-6.111.005-10.786,4.949-10.781,11.319l.022,27.561c0,4.551-.126,5.721-1.294,7.931a9.489,9.489,0,0,1-16.511.014c-1.171-2.209-1.3-3.249-1.306-7.93Z"/><path class="b" d="M563.533,39.013A11.116,11.116,0,1,1,552.6,27.972,11.071,11.071,0,0,1,563.533,39.013ZM542.756,69.191c0-4.55.126-5.72,1.294-7.931a9.489,9.489,0,0,1,16.511-.013c1.171,2.209,1.3,3.249,1.306,7.929l.033,42.251c0,4.551-.125,5.72-1.293,7.931a9.488,9.488,0,0,1-16.511.014c-1.171-2.209-1.3-3.249-1.306-7.93Z"/><path class="b" d="M627.566,66.393c5.595,6.106,8.592,14.554,8.6,23.914.016,19.5-13.623,34.2-31.824,34.216a31.888,31.888,0,0,1-23.409-10.381c-5.725-6.236-8.592-14.423-8.6-24.3-.015-18.981,13.883-33.812,31.954-33.826A31.821,31.821,0,0,1,627.566,66.393Zm-36.382,23.69c.007,9.621,5.473,16.636,12.754,16.63,7.54,0,13.385-7.291,13.377-16.521-.007-9.1-5.863-16.376-13.4-16.37C596.761,73.828,591.176,80.983,591.184,90.083Z"/><path class="b" d="M646.5,67.548c0-6.76,3.891-11.183,9.742-11.188,4.29,0,7.021,1.944,8.845,6.623,5.586-5.2,10.135-7.028,17.545-7.034,6.63-.006,12.222,1.94,16.645,5.707,5.074,4.546,6.9,9.225,6.906,18.325l.024,31.331c0,4.55-.125,5.72-1.294,7.931a9.487,9.487,0,0,1-16.51.013c-1.172-2.209-1.3-3.249-1.306-7.929l-.022-26.781c-.006-7.41-4.17-12.087-10.67-12.082-6.111,0-10.786,4.949-10.781,11.319l.022,27.561c0,4.551-.126,5.72-1.294,7.931a9.488,9.488,0,0,1-16.511.014c-1.171-2.209-1.3-3.249-1.306-7.93Z"/><path class="b" d="M781.392,112.682c0,6.759-3.892,11.313-9.612,11.318-4.55,0-7.672-2.464-9.626-7.533-4.806,5.984-8.7,7.937-15.724,7.943a27.9,27.9,0,0,1-18.857-7.265q-11.319-9.936-11.332-27.292c-.009-10.53,3.105-18.463,9.99-25.228C731.947,58.9,738.7,55.9,746.115,55.9c6.76-.005,10.792,1.941,16.257,7.527,2.075-5.071,4.934-7.154,9.484-7.157a9.519,9.519,0,0,1,9.5,9.742Zm-46.04-22.714c.008,10.011,5.213,16.636,13.273,16.63,7.8-.007,13.125-6.771,13.118-16.521S756.4,73.7,748.469,73.707C740.669,73.713,735.344,80.348,735.352,89.968Z"/><path class="b" d="M819.518,111.221c0,4.55-.125,5.72-1.294,7.931a9.488,9.488,0,0,1-16.511.014c-1.171-2.209-1.3-3.249-1.306-7.93l-.029-36.791c-5.07,0-7.931-.774-9.623-2.852a8.772,8.772,0,0,1-2.214-5.718,8.236,8.236,0,0,1,7.4-8.457,16.274,16.274,0,0,1,4.42-.264l-.008-9.88c0-4.55.125-5.72,1.294-7.8a9.408,9.408,0,0,1,8.316-4.817,9.5,9.5,0,0,1,8.194,4.674c1.172,2.209,1.3,3.249,1.307,7.929l.008,9.88,3.51,0c4.16,0,5.2.127,7.281,1.165a8.581,8.581,0,0,1,4.3,7.407,8.8,8.8,0,0,1-4.285,7.543c-2.079,1.042-2.989,1.172-7.279,1.176l-3.51,0Z"/><path class="b" d="M857.711,96.37c2.867,7.669,7.68,11.3,15.221,11.3,4.549,0,5.718-.394,15.725-5.342a10.827,10.827,0,0,1,4.16-.914,8.166,8.166,0,0,1,7.676,7.795c.006,7.8-13.9,15.091-28.59,15.1-20.41.016-34.721-13.753-34.737-33.254C837.15,70.776,851.049,55.814,869.9,55.8c17.811-.014,31.733,14.4,31.747,32.995,0,5.331-2.463,7.543-8.314,7.548Zm25.081-13.02a20.574,20.574,0,0,0-2.736-7.018A11.891,11.891,0,0,0,870.3,71.4c-6.37,0-10.528,3.649-13.251,11.971Z"/><path class="b" d="M953.45,40.261c0-4.55.126-5.72,1.294-7.931a9.489,9.489,0,0,1,16.511-.013c1.172,2.209,1.3,3.249,1.307,7.929l.057,72.673c.006,6.89-3.5,10.923-9.611,10.928-4.681,0-7.282-2.074-9.237-7.533-4.026,5.594-9.094,7.937-16.5,7.944-8.711.007-16.384-4.278-21.85-11.943a40.956,40.956,0,0,1-7.169-22.745c-.008-10.141,4.664-20.675,11.679-26.791a29.437,29.437,0,0,1,18.065-7.034c5.72,0,10.273,1.681,15.475,5.967ZM927.357,88.9c.008,9.62,5.605,16.636,13.275,16.63,7.41-.006,13-7.16,12.987-16.521-.007-9.23-5.6-16.376-13.014-16.37C933.065,72.649,927.351,79.674,927.357,88.9Z"/></svg>