<svg xmlns="http://www.w3.org/2000/svg" viewBox="0 0 1024 161"><defs><style>.a{fill:#90a4ae;}.b{fill:#aeea00;}</style></defs><title>web-app</title><path class="a" d="M284.9,64.717,289.443,53.4c1.3-3.121,2.337-4.031,4.547-4.033a4.255,4.255,0,0,1,4.163,4.026,7.136,7.136,0,0,1-.778,3.121l-3.243,8.193,6.24,0c3.9,0,5.721,1.3,5.724,4.155,0,2.991-1.817,4.292-5.717,4.3l-9.88.008L284.66,87.6l6.89,0c3.64,0,5.462,1.3,5.464,4.026,0,2.86-1.817,4.161-5.457,4.164l-10.14.009-4.672,11.7c-1.167,2.991-2.336,3.9-4.416,3.9a4.165,4.165,0,0,1-4.164-4.027,6.7,6.7,0,0,1,.778-2.991l3.373-8.582-14.431.011-4.671,11.574c-1.3,2.991-2.336,4.033-4.547,4.034a4.3,4.3,0,0,1-4.293-4.157c0-.91.129-1.3.908-2.99l3.243-8.454-6.63.006c-3.641,0-5.461-1.3-5.464-4.156,0-2.73,1.817-4.032,5.458-4.035l10.27-.007L258,73.189l-6.89.005c-3.77,0-5.591-1.3-5.594-4.285,0-2.86,1.817-4.162,5.587-4.165l10.141-.008,4.671-11.444c1.168-2.991,2.337-3.9,4.417-3.9a4.163,4.163,0,0,1,4.163,4.026,8.007,8.007,0,0,1-.777,3.121l-3.5,8.193Zm-23.772,22.9,14.56-.012,5.839-14.435-14.56.012Z"/><path class="b" d="M352.669,112.765c-2.462,8.193-7.01,11.965-14.42,11.971-5.72,0-11.053-3.76-12.228-8.829L309.978,50.4c-.783-3.38-.913-4.03-.915-5.85a9.464,9.464,0,0,1,9.613-9.368,9.136,9.136,0,0,1,7.023,3.114c1.562,1.819,2.213,3.119,3.126,7.539l10.7,45.752,14.783-47.2q2.723-8.973,10.523-8.979c5.46,0,8.583,2.723,10.538,8.962l15.118,47.18,10.1-45.51c1.814-7.8,4.672-10.924,10.392-10.929a9.628,9.628,0,0,1,9.758,9.613c0,1.82-.129,2.21-.9,5.851l-15.161,63.195c-1.684,7.021-6.361,10.924-13.121,10.93-6.89,0-11.053-3.371-13.4-10.909L364.858,72.844Z"/><path class="b" d="M443.812,96.7c2.866,7.668,7.679,11.3,15.219,11.3,4.551,0,5.72-.395,15.727-5.343a10.822,10.822,0,0,1,4.159-.914,8.167,8.167,0,0,1,7.677,7.8c.006,7.8-13.9,15.091-28.589,15.1-20.411.016-34.723-13.753-34.738-33.254C423.25,71.107,437.149,56.145,456,56.13c17.811-.014,31.732,14.4,31.748,33,0,5.33-2.464,7.542-8.315,7.547Zm25.081-13.021a20.645,20.645,0,0,0-2.736-7.018A11.892,11.892,0,0,0,456.4,71.73c-6.37,0-10.527,3.649-13.251,11.972Z"/><path class="b" d="M517.311,61.671c5.717-4.164,9.745-5.6,15.465-5.6,16.381-.013,29.654,15.056,29.669,34.037.015,19.5-12.713,34.461-29.484,34.475-7.149.006-11.832-2.2-15.866-7.528-2.076,4.943-4.8,7.155-8.965,7.158-5.85,0-9.883-4.152-9.888-10.133l-.059-73.453c0-4.55.126-5.72,1.294-7.931a9.488,9.488,0,0,1,16.51-.013c1.172,2.209,1.3,3.249,1.306,7.929ZM517.2,90.142c.008,9.621,5.6,16.636,13.274,16.63,7.41-.006,13-7.161,12.987-16.521-.007-9.23-5.6-16.376-13.013-16.37C522.911,73.887,517.2,80.912,517.2,90.142Z"/><path class="b" d="M588.391,106.726l-2.074,7.542c-2.074,7.542-4.932,10.535-10.132,10.539-5.46,0-10.144-4.413-10.148-9.613,0-2.21.128-2.86,1.684-6.891l22.571-62.421c2.595-7.022,7.792-11.056,14.682-11.062s12.093,4.021,14.7,11.038l22.671,62.385c1.564,4.029,1.694,4.808,1.7,6.888,0,5.2-4.543,9.625-10.133,9.63-5.2,0-7.933-2.854-10.149-10.523l-2.086-7.539Zm16.73-50.846-10.5,33.03,21.06-.016Z"/><path class="b" d="M652.371,67.673c-.006-7.02,3.5-11.313,9.22-11.317,4.421,0,6.763,1.814,9.237,7.273,5.066-5.595,9.744-7.678,17.024-7.684,15.861-.013,28.223,14.667,28.238,33.648.016,19.891-12.582,34.851-29.353,34.865-5.98,0-9.621-1.292-15.215-5.578l.015,18.461c0,4.68-.126,5.849-1.294,7.93a9.488,9.488,0,0,1-16.511.014c-1.171-2.209-1.3-3.249-1.306-7.929Zm18.608,22.346c.007,9.88,5.213,16.637,12.883,16.63,7.411,0,13.125-7.16,13.117-16.521-.007-9.23-5.732-16.376-13.143-16.37C676.3,73.765,670.971,80.529,670.979,90.019Z"/><path class="b" d="M726.6,67.614c-.006-7.02,3.5-11.313,9.221-11.318,4.42,0,6.762,1.815,9.236,7.273,5.066-5.594,9.744-7.678,17.025-7.684,15.86-.012,28.222,14.668,28.238,33.649.015,19.891-12.583,34.851-29.353,34.864-5.981.005-9.622-1.292-15.215-5.577l.015,18.46c0,4.68-.126,5.851-1.294,7.931a9.489,9.489,0,0,1-16.511.014c-1.172-2.209-1.3-3.249-1.306-7.929ZM745.207,89.96c.008,9.88,5.213,16.636,12.884,16.63,7.41-.006,13.125-7.161,13.117-16.521-.007-9.23-5.732-16.376-13.143-16.37C750.525,73.705,745.2,80.47,745.207,89.96Z"/></svg>