<svg xmlns="http://www.w3.org/2000/svg" viewBox="0 0 1024 161"><defs><style>.a{fill:#90a4ae;}.b{fill:#aeea00;}</style></defs><title>cross-layer</title><path class="a" d="M215.451,64.773l4.541-11.315c1.3-3.121,2.337-4.031,4.547-4.033a4.257,4.257,0,0,1,4.164,4.027,7.158,7.158,0,0,1-.778,3.12l-3.244,8.194,6.24-.006c3.9,0,5.722,1.3,5.724,4.156,0,2.99-1.817,4.292-5.717,4.294l-9.88.008-5.839,14.436,6.891-.006c3.64,0,5.461,1.3,5.463,4.026,0,2.86-1.817,4.162-5.457,4.165l-10.141.008-4.67,11.7c-1.168,2.991-2.337,3.9-4.417,3.9a4.165,4.165,0,0,1-4.164-4.027,6.7,6.7,0,0,1,.778-2.991l3.373-8.583-14.43.012-4.671,11.574c-1.3,2.991-2.337,4.032-4.547,4.034a4.3,4.3,0,0,1-4.294-4.157c0-.91.13-1.3.908-2.991l3.243-8.453-6.63,0c-3.64,0-5.461-1.3-5.464-4.155,0-2.73,1.818-4.032,5.458-4.035l10.27-.008,5.839-14.435-6.891,0c-3.77,0-5.591-1.3-5.593-4.286,0-2.86,1.816-4.161,5.586-4.164l10.141-.008,4.671-11.444c1.168-2.992,2.337-3.9,4.417-3.9a4.165,4.165,0,0,1,4.164,4.027,8.007,8.007,0,0,1-.778,3.12l-3.5,8.194Zm-23.772,22.9,14.56-.012,5.839-14.435-14.561.011Z"/><path class="b" d="M311.548,48.575c0,5.2-3.374,8.843-8.054,8.847-1.95,0-3.25-.387-7.282-2.074a23.817,23.817,0,0,0-10.4-2.2c-13.65.011-21.832,10.158-21.819,27.188C264,97.105,272.2,107.109,285.983,107.1c4.941,0,4.941,0,13.778-4.041a12.049,12.049,0,0,1,4.419-1.044c4.42,0,8.064,4.154,8.068,9.094.006,8.45-11.039,14.57-26.25,14.581-26.131.021-43.306-18.166-43.328-45.856-.022-26.651,17.644-45.256,43-45.276C301.136,34.543,311.541,40.255,311.548,48.575Z"/><path class="b" d="M320.763,67.548c0-6.63,3.761-10.923,9.612-10.927,4.29,0,7.412,2.2,9.5,6.752,5.326-5.334,8.7-7.157,13.125-7.161a9.766,9.766,0,0,1,9.758,9.873c0,4.55-1.944,6.372-9.743,8.718-10.4,3.388-13.126,5.991-13.12,12.751l.019,24.051c0,4.55-.125,5.72-1.294,7.931a9.488,9.488,0,0,1-16.511.013c-1.171-2.209-1.3-3.249-1.306-7.929Z"/><path class="b" d="M420.681,66.559c5.6,6.105,8.592,14.553,8.6,23.914.015,19.5-13.623,34.2-31.824,34.216a31.892,31.892,0,0,1-23.409-10.381c-5.726-6.236-8.592-14.424-8.6-24.3-.015-18.981,13.883-33.813,31.954-33.827A31.825,31.825,0,0,1,420.681,66.559ZM384.3,90.249c.008,9.62,5.473,16.636,12.753,16.63,7.54-.006,13.386-7.291,13.378-16.522-.007-9.1-5.864-16.375-13.4-16.369C389.876,73.994,384.292,81.148,384.3,90.249Z"/><path class="b" d="M484.134,69.238c0,4.29-3.5,8.323-7.4,8.326-2.08,0-2.209,0-8.062-2.593a18.475,18.475,0,0,0-7.282-1.945c-3.12,0-5.069,1.305-5.067,3.385,0,2.469,1.042,3.119,10.015,6.622,8.453,3.373,11.185,4.931,14.567,8.308a17.252,17.252,0,0,1,4.69,11.957c.01,12.611-10.253,21.329-25.2,21.341-13,.01-24.447-6.481-24.452-13.761,0-4.42,3.893-8.583,7.923-8.586,2.21,0,2.21,0,9.883,3.372a18.914,18.914,0,0,0,7.672,2.074c3.12,0,5.589-1.955,5.587-4.425,0-2.21-1.433-3.379-7.285-5.584-9.493-3.5-12.094-4.8-15.346-7.138-4.553-3.247-6.506-7.536-6.512-13.776-.009-11.83,10.514-20.679,24.555-20.69C473.983,56.116,484.128,62.217,484.134,69.238Z"/><path class="b" d="M541.555,69.192c0,4.29-3.5,8.323-7.4,8.326-2.08,0-2.21,0-8.062-2.593a18.475,18.475,0,0,0-7.282-1.945c-3.12,0-5.069,1.3-5.067,3.385,0,2.469,1.042,3.119,10.015,6.622,8.453,3.373,11.185,4.931,14.567,8.308a17.252,17.252,0,0,1,4.69,11.957c.01,12.611-10.253,21.329-25.2,21.341-13,.011-24.447-6.481-24.453-13.761,0-4.42,3.894-8.583,7.924-8.586,2.21,0,2.21,0,9.883,3.372a18.914,18.914,0,0,0,7.672,2.074c3.12,0,5.589-1.955,5.587-4.425,0-2.21-1.433-3.379-7.285-5.584-9.493-3.5-12.095-4.8-15.346-7.138-4.553-3.247-6.506-7.536-6.512-13.776-.009-11.83,10.514-20.679,24.554-20.69C531.4,56.07,541.549,62.171,541.555,69.192Z"/><path class="b" d="M593.193,105.422c4.29,0,5.331.126,7.411,1.164a8.978,8.978,0,0,1,.013,15.471c-2.079,1.042-2.989,1.172-7.409,1.175l-23.531.02c-7.02.005-8.841-.513-11.7-3.241-2.732-2.858-3.254-4.678-3.26-11.828l-.047-59.672c0-4.81.254-5.981,1.292-8.322a10.167,10.167,0,0,1,8.707-4.947,9.948,9.948,0,0,1,8.584,4.933c1.172,2.34,1.3,3.38,1.307,8.32l.046,56.942Z"/><path class="b" d="M671.939,112.77c.006,6.759-3.891,11.313-9.611,11.318-4.551,0-7.673-2.465-9.627-7.533-4.805,5.984-8.7,7.937-15.724,7.943a27.9,27.9,0,0,1-18.856-7.266Q606.8,107.3,606.788,89.94c-.008-10.53,3.106-18.463,9.991-25.228,5.715-5.725,12.473-8.72,19.883-8.726,6.76-.006,10.792,1.941,16.257,7.527,2.076-5.072,4.934-7.154,9.484-7.158a9.521,9.521,0,0,1,9.5,9.743ZM625.9,90.055c.008,10.011,5.213,16.637,13.273,16.63,7.8-.006,13.126-6.77,13.118-16.521s-5.343-16.376-13.273-16.37C631.216,73.8,625.891,80.435,625.9,90.055Z"/><path class="b" d="M721.664,65.408c2.6-6.762,5.193-9.1,10.133-9.108,5.33,0,9.754,4.282,9.758,9.222,0,2.34-.258,3.12-1.944,7.282l-28.936,69.445c-2.854,6.634-5.193,8.715-10.133,8.719-5.07.005-9.494-4.153-9.5-9.093,0-2.21.258-2.99,1.945-7.151l7.526-17.557L681.628,72.59c-1.693-3.9-1.953-4.939-1.955-7.149,0-4.94,4.412-9.1,9.613-9.108,4.81,0,7.282,2.2,10.017,8.963l11.2,28.332Z"/><path class="b" d="M765.706,96.444c2.865,7.668,7.678,11.3,15.219,11.3,4.55,0,5.72-.394,15.726-5.343a10.822,10.822,0,0,1,4.16-.913,8.165,8.165,0,0,1,7.676,7.794c.007,7.8-13.9,15.091-28.589,15.1-20.41.016-34.722-13.752-34.738-33.253-.016-20.28,13.882-35.242,32.733-35.257,17.811-.015,31.733,14.4,31.748,32.995,0,5.33-2.464,7.543-8.314,7.548Zm25.08-13.021a20.612,20.612,0,0,0-2.736-7.018,11.893,11.893,0,0,0-9.754-4.932c-6.37,0-10.527,3.649-13.251,11.971Z"/><path class="b" d="M820.1,67.149c-.006-6.63,3.761-10.923,9.611-10.928,4.29,0,7.413,2.2,9.5,6.753,5.325-5.335,8.7-7.158,13.125-7.161a9.766,9.766,0,0,1,9.758,9.873c0,4.549-1.944,6.371-9.743,8.717-10.4,3.389-13.125,5.992-13.12,12.752l.018,24.051c0,4.55-.125,5.72-1.293,7.931a9.489,9.489,0,0,1-16.511.013c-1.171-2.209-1.3-3.249-1.306-7.929Z"/></svg>