<svg xmlns="http://www.w3.org/2000/svg" viewBox="0 0 1024 161"><defs><style>.a{fill:#90a4ae;}.b{fill:#03a9f4;}</style></defs><title>full-stack</title><path class="a" d="M269.642,64.729l4.541-11.314c1.3-3.121,2.337-4.031,4.547-4.033a4.256,4.256,0,0,1,4.164,4.026,7.15,7.15,0,0,1-.778,3.121l-3.244,8.193,6.24,0c3.9,0,5.721,1.3,5.724,4.156,0,2.99-1.816,4.291-5.717,4.294l-9.88.008L269.4,87.61l6.891,0c3.64,0,5.461,1.3,5.463,4.026,0,2.86-1.817,4.161-5.457,4.164l-10.14.009-4.672,11.7c-1.167,2.992-2.336,3.9-4.416,3.905a4.167,4.167,0,0,1-4.164-4.028,6.691,6.691,0,0,1,.778-2.99l3.373-8.583-14.431.011-4.67,11.574c-1.3,2.992-2.337,4.033-4.547,4.034a4.3,4.3,0,0,1-4.294-4.157c0-.91.129-1.3.908-2.99l3.243-8.453-6.63,0c-3.64,0-5.461-1.3-5.464-4.156,0-2.73,1.817-4.032,5.458-4.034l10.27-.008L242.737,73.2l-6.89.006c-3.77,0-5.591-1.3-5.594-4.286,0-2.86,1.817-4.162,5.587-4.165l10.141-.007L250.652,53.3c1.168-2.991,2.337-3.9,4.417-3.9a4.163,4.163,0,0,1,4.163,4.026,7.984,7.984,0,0,1-.777,3.121l-3.5,8.193Zm-23.773,22.9,14.561-.011,5.839-14.436-14.561.012Z"/><path class="b" d="M319.527,71.84l15.731-.013c4.29,0,5.33.126,7.411,1.164a8.979,8.979,0,0,1,.012,15.471c-2.079,1.042-2.989,1.172-7.409,1.176l-15.73.012.017,21.841c0,4.81-.255,5.981-1.293,8.321a10.034,10.034,0,0,1-17.291.014c-1.172-2.339-1.3-3.379-1.307-8.319l-.048-60.322c0-5.98.384-7.671,2.072-10.012,2.338-3.122,5.327-4.424,9.877-4.428l2.47,0,24.44-.02c4.291,0,5.332.126,7.412,1.165a8.978,8.978,0,0,1,.013,15.47c-2.08,1.041-3.119,1.173-7.41,1.176l-18.98.015Z"/><path class="b" d="M416.138,97.633c0,6.761-1.421,11.7-4.668,15.735-5.454,7.024-14.941,11.322-24.951,11.33s-19.5-4.275-24.971-11.29c-3.253-4.028-4.687-8.967-4.693-15.727l-.022-28.341c0-4.55.125-5.72,1.293-7.931a9.489,9.489,0,0,1,16.511-.013c1.172,2.208,1.3,3.249,1.306,7.929l.021,26c0,4.03.785,5.979,3,8.188a11,11,0,0,0,15.081-.013c2.208-2.211,2.986-4.162,2.983-8.192l-.021-26c0-4.551.126-5.721,1.294-7.932a9.49,9.49,0,0,1,16.511-.013c1.172,2.209,1.3,3.249,1.306,7.929Z"/><path class="b" d="M448.79,111.518c0,4.55-.126,5.72-1.294,7.931a9.489,9.489,0,0,1-16.511.013c-1.172-2.209-1.3-3.249-1.306-7.929l-.057-70.852c0-4.551.126-5.721,1.294-7.8a9.408,9.408,0,0,1,8.316-4.817,9.508,9.508,0,0,1,8.194,4.674c1.172,2.209,1.3,3.249,1.307,7.929Z"/><path class="b" d="M481.625,111.492c0,4.55-.125,5.72-1.293,7.931a9.489,9.489,0,0,1-16.511.013c-1.172-2.209-1.3-3.249-1.306-7.929l-.057-70.853c0-4.55.125-5.72,1.293-7.8a9.408,9.408,0,0,1,8.317-4.817,9.506,9.506,0,0,1,8.194,4.674c1.172,2.209,1.3,3.249,1.307,7.929Z"/><path class="b" d="M549.212,47.215a8.941,8.941,0,0,1-8.833,9.238c-1.95,0-1.95,0-6.891-1.815a27.249,27.249,0,0,0-8.842-1.683c-5.85.005-10.008,3-10,7.158a5.892,5.892,0,0,0,2.733,4.938c2.342,1.688,2.342,1.688,10.664,3.892,19.115,5.185,27.312,13.369,27.323,27.409a29.586,29.586,0,0,1-7.394,19.9c-5.456,5.984-14.553,9.241-25.6,9.25-17.291.015-29.516-6.086-29.523-14.666,0-5.2,3.893-9.494,8.573-9.5,2.47,0,2.47,0,11.963,3.631a28.934,28.934,0,0,0,9.752,1.942c6.631,0,10.918-3.648,10.913-9.109a6.885,6.885,0,0,0-3.384-6.237c-2.472-1.688-4.293-2.337-13.785-5.189-10.143-2.983-14.175-4.929-17.818-8.567-3.643-3.507-5.6-9.1-5.6-15.726-.013-16.121,13.369-27.7,31.96-27.716C539.322,34.353,549.207,39.675,549.212,47.215Z"/><path class="b" d="M588.886,111.406c0,4.55-.125,5.72-1.293,7.931a9.489,9.489,0,0,1-16.511.013c-1.171-2.209-1.3-3.249-1.306-7.929l-.029-36.792c-5.071,0-7.932-.773-9.623-2.852a8.773,8.773,0,0,1-2.215-5.718,8.235,8.235,0,0,1,7.4-8.456,16.187,16.187,0,0,1,4.42-.264l-.008-9.881c0-4.549.125-5.72,1.294-7.8a9.406,9.406,0,0,1,8.316-4.817,9.508,9.508,0,0,1,8.194,4.674c1.172,2.209,1.3,3.249,1.306,7.929l.008,9.881,3.511,0c4.16,0,5.2.126,7.28,1.164a8.578,8.578,0,0,1,4.3,7.407,8.8,8.8,0,0,1-4.285,7.544c-2.079,1.042-2.988,1.172-7.279,1.175l-3.51,0Z"/><path class="b" d="M672.036,112.77c.006,6.759-3.891,11.313-9.612,11.318-4.55,0-7.672-2.465-9.626-7.533-4.806,5.984-8.7,7.937-15.724,7.942a27.9,27.9,0,0,1-18.857-7.265Q606.9,107.3,606.885,89.94c-.009-10.53,3.105-18.463,9.99-25.228,5.715-5.725,12.474-8.721,19.884-8.727,6.76-.005,10.792,1.942,16.257,7.528,2.075-5.072,4.934-7.154,9.484-7.158A9.521,9.521,0,0,1,672,66.1ZM626,90.055c.008,10.011,5.213,16.637,13.273,16.63,7.8-.006,13.126-6.77,13.118-16.521s-5.343-16.376-13.274-16.37C631.313,73.8,625.988,80.435,626,90.055Z"/><path class="b" d="M731.376,59.81a10.193,10.193,0,0,1,5.337,8.706c0,4.68-3.373,8.583-7.533,8.587-1.69,0-2.21-.129-6.892-1.945a18.633,18.633,0,0,0-6.891-1.425c-8.19.007-14.035,6.9-14.027,16.522.007,9.881,5.862,16.376,14.573,16.369a18.792,18.792,0,0,0,7.539-1.826c3.249-1.563,3.769-1.693,5.459-1.694,4.42,0,7.933,3.763,7.937,8.7a9.2,9.2,0,0,1-3.634,7.024c-4.548,3.383-11.956,5.6-19.107,5.605-9.36.007-17.163-3.366-23.149-9.861-6.115-6.626-8.721-13.9-8.73-24.565-.008-10.4,3.5-19.5,9.861-25.228a34.673,34.673,0,0,1,22.743-8.859A35.579,35.579,0,0,1,731.376,59.81Z"/><path class="b" d="M766.462,111.264c0,4.55-.125,5.72-1.293,7.931a9.489,9.489,0,0,1-16.511.013c-1.171-2.209-1.3-3.249-1.306-7.929L747.3,40.426c0-4.55.126-5.72,1.294-7.931a9.489,9.489,0,0,1,16.511-.013c1.171,2.209,1.3,3.249,1.306,7.929l.031,38.352,17.536-17.955c3.767-3.9,5.716-4.945,8.706-4.947a9.35,9.35,0,0,1,9.368,9.483c0,2.86-1.166,4.81-5.193,8.584l-11.821,11.45,16.657,20.657c3.253,4.028,4.164,5.847,4.166,8.447a9.683,9.683,0,0,1-9.742,9.5c-3.51,0-5.591-1.424-9.235-6.1L766.447,91.763Z"/></svg>