<svg xmlns="http://www.w3.org/2000/svg" viewBox="0 0 1024 161"><defs><style>.a{fill:#90a4ae;}.b{fill:#ff4081;}</style></defs><title>javascript</title><path class="a" d="M229.62,64.761l4.542-11.314c1.3-3.121,2.337-4.031,4.546-4.033a4.256,4.256,0,0,1,4.164,4.026,7.133,7.133,0,0,1-.778,3.121l-3.243,8.193,6.24-.005c3.9,0,5.721,1.3,5.723,4.156,0,2.99-1.816,4.291-5.716,4.294l-9.881.008-5.838,14.436,6.89-.006c3.64,0,5.461,1.3,5.463,4.026,0,2.86-1.816,4.162-5.457,4.165l-10.14.007-4.671,11.705c-1.168,2.991-2.337,3.9-4.417,3.9a4.164,4.164,0,0,1-4.163-4.026,6.678,6.678,0,0,1,.778-2.991l3.373-8.583-14.431.011-4.671,11.574c-1.3,2.992-2.336,4.032-4.547,4.034a4.3,4.3,0,0,1-4.293-4.156c0-.91.129-1.3.907-2.992l3.244-8.452-6.63.005c-3.641,0-5.462-1.3-5.464-4.156,0-2.73,1.817-4.031,5.457-4.034l10.27-.009,5.839-14.435-6.89.006c-3.77,0-5.592-1.3-5.594-4.286,0-2.86,1.817-4.161,5.587-4.164l10.14-.009,4.672-11.444c1.167-2.991,2.336-3.9,4.416-3.9a4.164,4.164,0,0,1,4.164,4.026,8.022,8.022,0,0,1-.777,3.121l-3.5,8.193Zm-23.772,22.9,14.56-.011,5.839-14.436-14.56.012Z"/><path class="b" d="M293.215,95.912c.009,10.53-1.676,17.032-5.7,21.976s-11.174,7.808-19.624,7.815c-13,.011-23.016-5.962-23.022-13.632a9.163,9.163,0,0,1,9.353-9.368c2.08,0,3.25.388,6.242,2.2,2.731,1.558,4.552,2.206,6.112,2.2,4.55,0,6.757-3.775,6.751-11.185l-.038-47.192c0-4.81.256-5.981,1.294-8.321a10.163,10.163,0,0,1,8.706-4.948A9.948,9.948,0,0,1,291.87,40.4c1.172,2.34,1.3,3.38,1.307,8.32Z"/><path class="b" d="M368.98,113.012c.006,6.759-3.891,11.313-9.611,11.318-4.55,0-7.672-2.465-9.626-7.533-4.806,5.984-8.7,7.937-15.724,7.943a27.906,27.906,0,0,1-18.857-7.265q-11.319-9.936-11.332-27.292c-.009-10.53,3.105-18.463,9.99-25.229,5.716-5.725,12.473-8.72,19.884-8.726,6.76-.005,10.792,1.941,16.256,7.527,2.076-5.071,4.935-7.154,9.485-7.157a9.519,9.519,0,0,1,9.5,9.742ZM322.94,90.3c.009,10.011,5.214,16.636,13.274,16.63,7.8-.007,13.125-6.771,13.118-16.522s-5.344-16.376-13.274-16.369C328.258,74.043,322.933,80.678,322.94,90.3Z"/><path class="b" d="M416.209,66.3c2.465-7.412,5.193-9.885,10.393-9.888,5.33-.005,9.884,4.412,9.888,9.482,0,2.08-.387,3.771-1.814,7.151l-16.218,40.705c-3.244,8.193-5.842,10.535-11.433,10.54-5.2,0-8.842-2.854-11.317-9.222L378.773,72.962c-1.433-3.509-1.824-5.068-1.826-7.149a9.664,9.664,0,0,1,9.743-9.368c5.2,0,7.8,2.464,10.279,9.872l9.643,28.594Z"/><path class="b" d="M506.064,112.9c.006,6.76-3.891,11.314-9.611,11.319-4.55,0-7.672-2.465-9.626-7.533-4.806,5.983-8.7,7.937-15.724,7.942a27.9,27.9,0,0,1-18.857-7.265q-11.319-9.936-11.332-27.292c-.009-10.53,3.105-18.463,9.99-25.228,5.716-5.726,12.473-8.721,19.884-8.727,6.76-.005,10.792,1.942,16.256,7.528,2.076-5.072,4.935-7.154,9.485-7.158a9.52,9.52,0,0,1,9.5,9.742Zm-46.04-22.714c.009,10.011,5.214,16.636,13.274,16.63,7.8-.006,13.125-6.771,13.118-16.521s-5.344-16.377-13.274-16.37C465.342,73.933,460.017,80.568,460.024,90.188Z"/><path class="b" d="M573.741,47.2a8.941,8.941,0,0,1-8.833,9.237c-1.95,0-1.95,0-6.891-1.815a27.252,27.252,0,0,0-8.842-1.682c-5.85,0-10.008,3-10,7.157a5.9,5.9,0,0,0,2.734,4.939c2.342,1.688,2.342,1.688,10.664,3.891,19.115,5.185,27.311,13.369,27.323,27.41a29.585,29.585,0,0,1-7.394,19.9c-5.456,5.985-14.554,9.242-25.6,9.25-17.291.015-29.516-6.086-29.523-14.666,0-5.2,3.893-9.493,8.573-9.5,2.47,0,2.47,0,11.963,3.63a28.909,28.909,0,0,0,9.752,1.942c6.631-.005,10.918-3.648,10.913-9.108a6.887,6.887,0,0,0-3.385-6.238c-2.471-1.688-4.292-2.337-13.785-5.189-10.143-2.982-14.174-4.929-17.817-8.566-3.643-3.507-5.6-9.1-5.6-15.726-.013-16.121,13.369-27.7,31.959-27.717C563.851,34.333,573.735,39.655,573.741,47.2Z"/><path class="b" d="M636.19,59.886a10.2,10.2,0,0,1,5.337,8.706c0,4.68-3.373,8.583-7.533,8.587-1.691,0-2.211-.129-6.892-1.945a18.654,18.654,0,0,0-6.892-1.425c-8.19.007-14.035,6.9-14.027,16.522.008,9.88,5.863,16.376,14.573,16.369a18.792,18.792,0,0,0,7.539-1.826c3.249-1.562,3.769-1.693,5.459-1.694,4.421,0,7.934,3.763,7.937,8.7a9.2,9.2,0,0,1-3.634,7.024c-4.548,3.384-11.956,5.6-19.106,5.605-9.361.008-17.163-3.366-23.149-9.861-6.115-6.626-8.721-13.9-8.73-24.565-.009-10.4,3.494-19.5,9.86-25.228A34.674,34.674,0,0,1,619.676,56,35.591,35.591,0,0,1,636.19,59.886Z"/><path class="b" d="M651.883,67.284c0-6.63,3.762-10.924,9.612-10.928,4.29,0,7.412,2.2,9.5,6.752,5.326-5.334,8.705-7.157,13.125-7.16a9.766,9.766,0,0,1,9.759,9.872c0,4.55-1.945,6.372-9.744,8.718-10.4,3.389-13.126,5.991-13.12,12.751l.019,24.051c0,4.55-.125,5.72-1.294,7.931a9.488,9.488,0,0,1-16.51.013c-1.172-2.209-1.3-3.248-1.307-7.929Z"/><path class="b" d="M722.424,38.886a11.116,11.116,0,1,1-10.93-11.041A11.071,11.071,0,0,1,722.424,38.886ZM701.647,69.064c0-4.55.126-5.72,1.294-7.931a9.489,9.489,0,0,1,16.511-.013c1.172,2.209,1.3,3.249,1.306,7.929l.034,42.251c0,4.551-.125,5.721-1.294,7.931a9.488,9.488,0,0,1-16.511.014c-1.171-2.209-1.3-3.249-1.306-7.93Z"/><path class="b" d="M734.977,67.607c-.006-7.02,3.5-11.313,9.221-11.317,4.42,0,6.762,1.814,9.236,7.272,5.066-5.594,9.744-7.678,17.024-7.684,15.861-.012,28.223,14.668,28.239,33.649.015,19.891-12.583,34.851-29.353,34.865-5.981,0-9.622-1.292-15.215-5.578l.015,18.461c0,4.68-.126,5.85-1.294,7.931a9.49,9.49,0,0,1-16.511.013c-1.172-2.209-1.3-3.249-1.306-7.929Zm18.608,22.346c.008,9.88,5.213,16.636,12.884,16.63,7.41,0,13.125-7.161,13.117-16.521-.007-9.23-5.732-16.375-13.143-16.37C758.9,73.7,753.578,80.463,753.585,89.953Z"/><path class="b" d="M832.745,111.21c0,4.551-.125,5.721-1.294,7.932a9.489,9.489,0,0,1-16.511.013c-1.171-2.209-1.3-3.249-1.306-7.929l-.029-36.791c-5.07,0-7.931-.774-9.623-2.853a8.765,8.765,0,0,1-2.214-5.718,8.234,8.234,0,0,1,7.4-8.456,16.187,16.187,0,0,1,4.42-.264l-.008-9.88c0-4.55.125-5.721,1.294-7.8a9.406,9.406,0,0,1,8.316-4.816,9.5,9.5,0,0,1,8.194,4.673c1.172,2.209,1.3,3.249,1.306,7.929l.009,9.88,3.51,0c4.16,0,5.2.126,7.28,1.165a8.573,8.573,0,0,1,4.3,7.406,8.8,8.8,0,0,1-4.284,7.544c-2.079,1.041-2.989,1.172-7.279,1.176l-3.511,0Z"/></svg>