<svg id="Calque_1" data-name="Calque 1" xmlns="http://www.w3.org/2000/svg" viewBox="0 0 497.9 175.36"><defs><style>.cls-1{fill:#909090;}.cls-2{fill:#ff358b;}.cls-3{fill:#aeee00;}.cls-4{fill:#01b0f0;}</style></defs><title>layer-logo</title><path class="cls-1" d="M215.23,106.34c6.5,0,8.07.19,11.23,1.76,3.94,2,6.7,6.89,6.7,11.62,0,4.93-2.75,9.85-6.68,11.83-3.15,1.57-4.53,1.77-11.23,1.78l-35.66,0c-10.63,0-13.39-.78-17.73-4.91-4.14-4.33-4.93-7.09-4.94-17.93l-.07-90.42c0-7.28.39-9.06,2-12.6A15.39,15.39,0,0,1,172,0c5.32,0,10.84,3.14,13,7.47,1.77,3.55,2,5.13,2,12.61l.07,86.28Z"/><path class="cls-1" d="M328.64,117.48c0,10.24-5.89,17.14-14.56,17.15-6.9,0-11.63-3.74-14.59-11.42-7.28,9.07-13.19,12-23.82,12a42.3,42.3,0,0,1-28.58-11q-17.15-15.06-17.17-41.35c0-16,4.71-28,15.14-38.23C253.72,36,264,31.44,275.19,31.44c10.24,0,16.35,2.94,24.63,11.4C303,35.16,307.3,32,314.19,32a14.41,14.41,0,0,1,14.39,14.76ZM258.88,83.06c0,15.17,7.9,25.21,20.11,25.2,11.82,0,19.89-10.26,19.88-25s-8.1-24.82-20.11-24.81C266.94,58.43,258.87,68.48,258.88,83.06Z"/><path class="cls-1" d="M398.08,45.72c3.93-10.25,7.87-13.8,15.36-13.8,8.07,0,14.78,6.49,14.78,14,0,3.55-.39,4.73-2.94,11L381.43,162.15c-4.33,10-7.87,13.21-15.35,13.21-7.69,0-14.39-6.29-14.4-13.77,0-3.35.39-4.54,2.95-10.84l11.4-26.6L337.42,56.6c-2.57-5.91-3-7.48-3-10.83,0-7.49,6.69-13.8,14.57-13.8,7.29,0,11,3.34,15.18,13.58l17,42.93Z"/><path class="cls-1" d="M434.27,48.45c0-10.05,5.7-16.55,14.56-16.56,6.5,0,11.23,3.34,14.39,10.23,8.07-8.08,13.19-10.85,19.89-10.85a14.81,14.81,0,0,1,14.79,15c0,6.89-2.95,9.65-14.77,13.21-15.75,5.13-19.89,9.08-19.88,19.32l0,36.44c0,6.9-.19,8.67-2,12-2.16,4.34-7.28,7.3-12.4,7.3-5.32,0-10.45-3-12.62-7.28-1.77-3.35-2-4.92-2-12Z"/><path class="cls-2" d="M118,31H15A15,15,0,0,1,15,1H118a15,15,0,0,1,0,30Z"/><path class="cls-3" d="M118,82H15a15,15,0,0,1,0-30H118a15,15,0,0,1,0,30Z"/><path class="cls-4" d="M118,132H15a15,15,0,1,1,0-30H118a15,15,0,0,1,0,30Z"/></svg>