<svg id="Calque_1" data-name="Calque 1" xmlns="http://www.w3.org/2000/svg" viewBox="0 0 748.031 146.431"><defs><style>.cls-1{fill:#63707e;}.cls-2{fill:#ff358b;}.cls-3{fill:#aeee00;}.cls-4{fill:#01b0f0;}</style></defs><title>liaison-logo-v2</title><path class="cls-1" d="M255.833,117.559c6.5,0,8.077.191,11.23,1.764,3.941,1.967,6.7,6.889,6.707,11.617,0,4.925-2.75,9.852-6.688,11.825-3.151,1.578-4.53,1.776-11.227,1.782l-35.656.028c-10.637.009-13.4-.777-17.733-4.91-4.141-4.331-4.93-7.088-4.939-17.923l-.072-90.419c-.006-7.288.386-9.061,1.959-12.609a15.4,15.4,0,0,1,13.193-7.5c5.319,0,10.837,3.144,13.007,7.475,1.776,3.545,1.975,5.121,1.98,12.606l.069,86.283Z"/><path class="cls-1" d="M309.39,16.854a16.843,16.843,0,1,1-33.685.026,16.843,16.843,0,0,1,33.685-.026ZM277.908,62.581c0-6.894.19-8.668,1.961-12.018,2.163-4.335,7.283-7.3,12.6-7.3,5.122,0,10.246,2.947,12.417,7.278,1.775,3.348,1.974,4.924,1.979,12.016l.051,64.022c.006,6.895-.19,8.667-1.96,12.017-2.163,4.336-7.283,7.3-12.4,7.3-5.318,0-10.442-2.946-12.613-7.279-1.776-3.347-1.973-4.922-1.979-12.014Z"/><path class="cls-1" d="M415.538,128.66c.008,10.243-5.9,17.143-14.564,17.15-6.895,0-11.626-3.734-14.587-11.414-7.281,9.067-13.188,12.027-23.826,12.035a42.28,42.28,0,0,1-28.572-11.008q-17.151-15.057-17.172-41.355c-.013-15.956,4.706-27.976,15.138-38.228,8.66-8.674,18.9-13.214,30.129-13.222,10.244-.009,16.353,2.941,24.633,11.405,3.146-7.685,7.477-10.84,14.372-10.846A14.425,14.425,0,0,1,415.481,57.94ZM345.775,94.242c.012,15.168,7.9,25.209,20.113,25.2,11.82-.009,19.889-10.258,19.877-25.033s-8.1-24.814-20.113-24.8C353.832,69.612,345.763,79.665,345.775,94.242Z"/><path class="cls-1" d="M462.627,16.731a16.843,16.843,0,1,1-33.686.027,16.843,16.843,0,0,1,33.686-.027ZM431.145,62.458c-.006-6.895.19-8.667,1.96-12.018,2.163-4.335,7.283-7.294,12.6-7.3,5.121-.005,10.245,2.946,12.416,7.278,1.776,3.348,1.974,4.923,1.979,12.015l.052,64.022c0,6.9-.19,8.668-1.96,12.018-2.164,4.336-7.284,7.3-12.405,7.3-5.319,0-10.443-2.946-12.613-7.278-1.776-3.348-1.974-4.923-1.98-12.015Z"/><path class="cls-1" d="M544.451,62.368c.006,6.5-5.308,12.611-11.218,12.616-3.152,0-3.348,0-12.217-3.93-4.335-1.967-8.078-2.949-11.033-2.946-4.728,0-7.682,1.976-7.679,5.128,0,3.743,1.58,4.726,15.176,10.034,12.809,5.112,16.948,7.472,22.073,12.59a26.14,26.14,0,0,1,7.107,18.118c.015,19.107-15.537,32.318-38.191,32.336-19.7.016-37.042-9.819-37.05-20.851-.006-6.7,5.9-13.006,12-13.011,3.349,0,3.349,0,14.976,5.11,4.729,2.163,8.473,3.146,11.625,3.143,4.728,0,8.468-2.962,8.465-6.7,0-3.349-2.171-5.12-11.038-8.461-14.385-5.308-18.326-7.274-23.254-10.816-6.9-4.92-9.859-11.418-9.866-20.874-.014-17.926,15.931-31.334,37.206-31.351C529.071,42.484,544.443,51.73,544.451,62.368Z"/><path class="cls-1" d="M634.768,58.159C643.246,67.41,647.787,80.211,647.8,94.4c.023,29.548-20.643,51.825-48.222,51.846a48.326,48.326,0,0,1-35.471-15.73c-8.675-9.449-13.019-21.856-13.031-36.827-.023-28.761,21.038-51.234,48.419-51.256A48.221,48.221,0,0,1,634.768,58.159Zm-55.129,35.9c.012,14.577,8.294,25.208,19.326,25.2,11.425-.009,20.281-11.047,20.27-25.034-.011-13.789-8.885-24.813-20.31-24.8C588.091,69.424,579.629,80.266,579.639,94.055Z"/><path class="cls-1" d="M657.558,59.914c-.007-10.244,5.9-16.947,14.762-16.954,6.5-.005,10.639,2.947,13.4,10.036,8.465-7.886,15.357-10.65,26.586-10.659,10.047-.008,18.519,2.94,25.222,8.648,7.688,6.888,10.452,13.977,10.462,27.767l.039,47.475c0,6.9-.191,8.668-1.961,12.018-2.164,4.335-7.283,7.294-12.405,7.3-5.318,0-10.442-2.946-12.613-7.278-1.775-3.348-1.974-4.923-1.98-12.015l-.032-40.58c-.009-11.229-6.318-18.316-16.168-18.308-9.258.008-16.344,7.5-16.336,17.152l.033,41.762c0,6.895-.19,8.667-1.96,12.017-2.163,4.336-7.283,7.3-12.405,7.3-5.319,0-10.443-2.947-12.613-7.28-1.776-3.347-1.974-4.922-1.979-12.014Z"/><rect class="cls-2" x="16.502" y="13.232" width="13.082" height="13.082"/><rect class="cls-2" x="33.004" y="13.232" width="13.082" height="13.082"/><rect class="cls-2" x="49.507" y="13.232" width="13.082" height="13.082"/><rect class="cls-2" x="99.372" y="13.232" width="13.082" height="13.082"/><rect class="cls-2" x="115.874" y="13.232" width="13.082" height="13.082"/><rect class="cls-2" x="132.376" y="13.232" width="13.082" height="13.082"/><rect class="cls-2" y="30.093" width="13.082" height="13.082"/><rect class="cls-2" x="16.502" y="30.093" width="13.082" height="13.082"/><rect class="cls-2" x="33.004" y="30.093" width="13.082" height="13.082"/><rect class="cls-2" x="49.507" y="30.093" width="13.082" height="13.082"/><rect class="cls-2" x="66.367" y="30.093" width="13.082" height="13.082"/><rect class="cls-2" x="82.87" y="30.093" width="13.082" height="13.082"/><rect class="cls-2" x="99.372" y="30.093" width="13.082" height="13.082"/><rect class="cls-2" x="115.874" y="30.093" width="13.082" height="13.082"/><rect class="cls-2" x="132.376" y="30.093" width="13.082" height="13.082"/><rect class="cls-2" x="149.237" y="30.093" width="13.082" height="13.082"/><rect class="cls-2" y="46.954" width="13.082" height="13.082"/><rect class="cls-2" x="16.502" y="46.954" width="13.082" height="13.082"/><rect class="cls-2" x="33.004" y="46.954" width="13.082" height="13.082"/><rect class="cls-2" x="49.507" y="46.954" width="13.082" height="13.082"/><rect class="cls-2" x="66.367" y="46.954" width="13.082" height="13.082"/><rect class="cls-2" x="82.87" y="46.954" width="13.082" height="13.082"/><rect class="cls-2" x="99.372" y="46.954" width="13.082" height="13.082"/><rect class="cls-2" x="115.874" y="46.954" width="13.082" height="13.082"/><rect class="cls-2" x="132.376" y="46.954" width="13.082" height="13.082"/><rect class="cls-2" x="149.237" y="46.954" width="13.082" height="13.082"/><rect class="cls-3" y="63.456" width="13.082" height="13.082"/><rect class="cls-3" x="16.502" y="63.456" width="13.082" height="13.082"/><rect class="cls-3" x="33.004" y="63.456" width="13.082" height="13.082"/><rect class="cls-3" x="49.507" y="63.456" width="13.082" height="13.082"/><rect class="cls-3" x="66.367" y="63.456" width="13.082" height="13.082"/><rect class="cls-3" x="82.87" y="63.456" width="13.082" height="13.082"/><rect class="cls-3" x="99.372" y="63.456" width="13.082" height="13.082"/><rect class="cls-3" x="115.874" y="63.456" width="13.082" height="13.082"/><rect class="cls-3" x="132.376" y="63.456" width="13.082" height="13.082"/><rect class="cls-3" x="149.237" y="63.456" width="13.082" height="13.082"/><rect class="cls-3" x="16.502" y="80.317" width="13.082" height="13.082"/><rect class="cls-3" x="33.004" y="80.317" width="13.082" height="13.082"/><rect class="cls-3" x="49.507" y="80.317" width="13.082" height="13.082"/><rect class="cls-3" x="66.367" y="80.317" width="13.082" height="13.082"/><rect class="cls-3" x="82.87" y="80.317" width="13.082" height="13.082"/><rect class="cls-3" x="99.372" y="80.317" width="13.082" height="13.082"/><rect class="cls-3" x="115.874" y="80.317" width="13.082" height="13.082"/><rect class="cls-3" x="132.376" y="80.317" width="13.082" height="13.082"/><rect class="cls-4" x="33.004" y="97.178" width="13.082" height="13.082"/><rect class="cls-4" x="49.507" y="97.178" width="13.082" height="13.082"/><rect class="cls-4" x="66.367" y="97.178" width="13.082" height="13.082"/><rect class="cls-4" x="82.87" y="97.178" width="13.082" height="13.082"/><rect class="cls-4" x="99.372" y="97.178" width="13.082" height="13.082"/><rect class="cls-4" x="115.874" y="97.178" width="13.082" height="13.082"/><rect class="cls-4" x="49.507" y="113.68" width="13.082" height="13.082"/><rect class="cls-4" x="66.367" y="113.68" width="13.082" height="13.082"/><rect class="cls-4" x="82.87" y="113.68" width="13.082" height="13.082"/><rect class="cls-4" x="99.372" y="113.68" width="13.082" height="13.082"/><rect class="cls-4" x="66.367" y="130.541" width="13.082" height="13.082"/><rect class="cls-4" x="82.87" y="130.541" width="13.082" height="13.082"/></svg>