<svg id="Calque_1" data-name="Calque 1" xmlns="http://www.w3.org/2000/svg" viewBox="0 0 753.208 146.432"><defs><style>.cls-1{fill:#607d8b;}.cls-2{fill:#ff4081;}.cls-3{fill:#aeea00;}.cls-4{fill:#03a9f4;}</style></defs><title>liaison-logo-with-icon</title><path class="cls-1" d="M378.27,551.254c6.5,0,8.077.191,11.23,1.765,3.941,1.966,6.7,6.889,6.707,11.617,0,4.925-2.75,9.851-6.688,11.825-3.151,1.578-4.529,1.776-11.227,1.781l-35.655.029c-10.638.008-13.4-.777-17.734-4.911-4.14-4.33-4.93-7.088-4.939-17.922l-.072-90.419c-.006-7.289.386-9.062,1.96-12.609a15.4,15.4,0,0,1,13.192-7.5c5.319,0,10.837,3.143,13.007,7.475,1.776,3.545,1.975,5.12,1.981,12.606l.069,86.282Z" transform="translate(-122.323 -433.691)"/><path class="cls-1" d="M436.89,450.545a16.843,16.843,0,1,1-33.685.027,16.843,16.843,0,0,1,33.685-.027Zm-31.482,45.727c0-6.894.19-8.668,1.961-12.018,2.163-4.335,7.282-7.294,12.6-7.3,5.122,0,10.246,2.946,12.417,7.278,1.775,3.348,1.973,4.923,1.979,12.015l.051,64.022c.005,6.9-.19,8.668-1.96,12.018-2.164,4.336-7.283,7.295-12.4,7.3-5.319,0-10.443-2.947-12.613-7.279-1.776-3.348-1.974-4.923-1.98-12.015Z" transform="translate(-122.323 -433.691)"/><path class="cls-1" d="M543.038,562.351c.008,10.244-5.9,17.143-14.564,17.15-6.9.006-11.626-3.734-14.587-11.414-7.281,9.067-13.188,12.027-23.826,12.036a42.283,42.283,0,0,1-28.573-11.009q-17.149-15.056-17.171-41.354c-.013-15.956,4.7-27.977,15.138-38.229,8.66-8.674,18.9-13.213,30.129-13.222,10.244-.008,16.353,2.941,24.633,11.4,3.146-7.685,7.477-10.84,14.372-10.845a14.424,14.424,0,0,1,14.392,14.762Zm-69.763-34.417c.012,15.168,7.9,25.208,20.113,25.2,11.82-.009,19.888-10.259,19.877-25.033s-8.1-24.815-20.114-24.805C481.332,503.3,473.263,513.356,473.275,527.934Z" transform="translate(-122.323 -433.691)"/><path class="cls-1" d="M590.126,450.422a16.843,16.843,0,1,1-33.685.027,16.843,16.843,0,0,1,33.685-.027ZM558.645,496.15c-.006-6.895.189-8.668,1.96-12.019,2.163-4.335,7.283-7.294,12.6-7.3,5.121,0,10.245,2.947,12.416,7.278,1.775,3.348,1.974,4.924,1.979,12.015l.051,64.022c.006,6.895-.19,8.668-1.96,12.018-2.163,4.336-7.283,7.295-12.4,7.3-5.319,0-10.443-2.946-12.614-7.279-1.776-3.347-1.973-4.922-1.979-12.014Z" transform="translate(-122.323 -433.691)"/><path class="cls-1" d="M671.952,496.059c0,6.5-5.309,12.612-11.219,12.616-3.152,0-3.349,0-12.216-3.93-4.335-1.966-8.079-2.948-11.034-2.945-4.728,0-7.681,1.975-7.678,5.127,0,3.743,1.579,4.727,15.175,10.034,12.809,5.112,16.948,7.473,22.075,12.59a26.141,26.141,0,0,1,7.1,18.118c.016,19.108-15.535,32.319-38.189,32.337-19.7.015-37.042-9.82-37.051-20.851,0-6.7,5.9-13.007,12.006-13.011,3.348,0,3.348,0,14.975,5.109,4.729,2.164,8.474,3.146,11.625,3.143,4.728,0,8.468-2.961,8.465-6.7,0-3.349-2.171-5.121-11.038-8.462-14.385-5.308-18.326-7.274-23.254-10.816-6.9-4.919-9.859-11.418-9.866-20.873-.014-17.926,15.932-31.334,37.207-31.352C656.571,476.175,671.943,485.421,671.952,496.059Z" transform="translate(-122.323 -433.691)"/><path class="cls-1" d="M762.27,491.85c8.477,9.252,13.018,22.053,13.029,36.236.024,29.549-20.642,51.825-48.221,51.847A48.329,48.329,0,0,1,691.607,564.2c-8.675-9.449-13.019-21.855-13.031-36.827-.023-28.76,21.037-51.234,48.419-51.256A48.232,48.232,0,0,1,762.27,491.85Zm-55.13,35.9c.011,14.578,8.295,25.209,19.326,25.2,11.426-.009,20.281-11.048,20.269-25.034-.01-13.789-8.883-24.814-20.309-24.805C715.591,503.116,707.129,513.957,707.14,527.746Z" transform="translate(-122.323 -433.691)"/><path class="cls-1" d="M785.059,493.605c-.008-10.244,5.895-16.946,14.76-16.953,6.5-.006,10.641,2.946,13.405,10.036,8.464-7.887,15.356-10.65,26.585-10.659,10.045-.008,18.518,2.94,25.221,8.647,7.689,6.888,10.451,13.978,10.463,27.768l.038,47.474c0,6.895-.19,8.668-1.961,12.018-2.163,4.335-7.283,7.294-12.405,7.3-5.318,0-10.442-2.947-12.613-7.279-1.775-3.347-1.974-4.923-1.979-12.015l-.033-40.58c-.009-11.228-6.318-18.315-16.168-18.307-9.259.008-16.344,7.5-16.336,17.151l.034,41.762c0,6.895-.19,8.668-1.962,12.018-2.163,4.336-7.282,7.295-12.4,7.3-5.318,0-10.442-2.947-12.613-7.279-1.775-3.347-1.974-4.922-1.979-12.014Z" transform="translate(-122.323 -433.691)"/><rect class="cls-2" x="16.502" y="13.463" width="13.082" height="13.082"/><rect class="cls-2" x="33.004" y="13.463" width="13.082" height="13.082"/><rect class="cls-2" x="49.507" y="13.463" width="13.082" height="13.082"/><rect class="cls-2" x="99.372" y="13.463" width="13.082" height="13.082"/><rect class="cls-2" x="115.874" y="13.463" width="13.082" height="13.082"/><rect class="cls-2" x="132.376" y="13.463" width="13.082" height="13.082"/><rect class="cls-2" y="30.324" width="13.082" height="13.082"/><rect class="cls-2" x="16.502" y="30.324" width="13.082" height="13.082"/><rect class="cls-2" x="33.004" y="30.324" width="13.082" height="13.082"/><rect class="cls-2" x="49.507" y="30.324" width="13.082" height="13.082"/><rect class="cls-2" x="66.367" y="30.324" width="13.082" height="13.082"/><rect class="cls-2" x="82.87" y="30.324" width="13.082" height="13.082"/><rect class="cls-2" x="99.372" y="30.324" width="13.082" height="13.082"/><rect class="cls-2" x="115.874" y="30.324" width="13.082" height="13.082"/><rect class="cls-2" x="132.376" y="30.324" width="13.082" height="13.082"/><rect class="cls-2" x="149.237" y="30.324" width="13.082" height="13.082"/><rect class="cls-2" y="47.185" width="13.082" height="13.082"/><rect class="cls-2" x="16.502" y="47.185" width="13.082" height="13.082"/><rect class="cls-2" x="33.004" y="47.185" width="13.082" height="13.082"/><rect class="cls-2" x="49.507" y="47.185" width="13.082" height="13.082"/><rect class="cls-2" x="66.367" y="47.185" width="13.082" height="13.082"/><rect class="cls-2" x="82.87" y="47.185" width="13.082" height="13.082"/><rect class="cls-2" x="99.372" y="47.185" width="13.082" height="13.082"/><rect class="cls-2" x="115.874" y="47.185" width="13.082" height="13.082"/><rect class="cls-2" x="132.376" y="47.185" width="13.082" height="13.082"/><rect class="cls-2" x="149.237" y="47.185" width="13.082" height="13.082"/><rect class="cls-3" y="63.687" width="13.082" height="13.082"/><rect class="cls-3" x="16.502" y="63.687" width="13.082" height="13.082"/><rect class="cls-3" x="33.004" y="63.687" width="13.082" height="13.082"/><rect class="cls-3" x="49.507" y="63.687" width="13.082" height="13.082"/><rect class="cls-3" x="66.367" y="63.687" width="13.082" height="13.082"/><rect class="cls-3" x="82.87" y="63.687" width="13.082" height="13.082"/><rect class="cls-3" x="99.372" y="63.687" width="13.082" height="13.082"/><rect class="cls-3" x="115.874" y="63.687" width="13.082" height="13.082"/><rect class="cls-3" x="132.376" y="63.687" width="13.082" height="13.082"/><rect class="cls-3" x="149.237" y="63.687" width="13.082" height="13.082"/><rect class="cls-3" x="16.502" y="80.548" width="13.082" height="13.082"/><rect class="cls-3" x="33.004" y="80.548" width="13.082" height="13.082"/><rect class="cls-3" x="49.507" y="80.548" width="13.082" height="13.082"/><rect class="cls-3" x="66.367" y="80.548" width="13.082" height="13.082"/><rect class="cls-3" x="82.87" y="80.548" width="13.082" height="13.082"/><rect class="cls-3" x="99.372" y="80.548" width="13.082" height="13.082"/><rect class="cls-3" x="115.874" y="80.548" width="13.082" height="13.082"/><rect class="cls-3" x="132.376" y="80.548" width="13.082" height="13.082"/><rect class="cls-4" x="33.004" y="97.409" width="13.082" height="13.082"/><rect class="cls-4" x="49.507" y="97.409" width="13.082" height="13.082"/><rect class="cls-4" x="66.367" y="97.409" width="13.082" height="13.082"/><rect class="cls-4" x="82.87" y="97.409" width="13.082" height="13.082"/><rect class="cls-4" x="99.372" y="97.409" width="13.082" height="13.082"/><rect class="cls-4" x="115.874" y="97.409" width="13.082" height="13.082"/><rect class="cls-4" x="49.507" y="113.911" width="13.082" height="13.082"/><rect class="cls-4" x="66.367" y="113.911" width="13.082" height="13.082"/><rect class="cls-4" x="82.87" y="113.911" width="13.082" height="13.082"/><rect class="cls-4" x="99.372" y="113.911" width="13.082" height="13.082"/><rect class="cls-4" x="66.367" y="130.772" width="13.082" height="13.082"/><rect class="cls-4" x="82.87" y="130.772" width="13.082" height="13.082"/></svg>