<svg xmlns="http://www.w3.org/2000/svg" viewBox="0 0 1024 161"><defs><style>.a{fill:#90a4ae;}.b{fill:#aeea00;}</style></defs><title>no-framework</title><path class="a" d="M123.23,64.847l4.541-11.315c1.3-3.121,2.337-4.032,4.547-4.033a4.256,4.256,0,0,1,4.164,4.026,7.147,7.147,0,0,1-.778,3.121l-3.244,8.193,6.241,0c3.9,0,5.721,1.3,5.723,4.156,0,2.99-1.817,4.291-5.716,4.294l-9.881.008-5.838,14.436,6.89-.006c3.64,0,5.461,1.3,5.463,4.026,0,2.86-1.817,4.162-5.457,4.165l-10.14.007-4.671,11.7c-1.168,2.991-2.337,3.9-4.417,3.9a4.164,4.164,0,0,1-4.163-4.027,6.687,6.687,0,0,1,.777-2.99l3.374-8.583-14.431.011-4.671,11.575c-1.3,2.991-2.336,4.032-4.546,4.033a4.3,4.3,0,0,1-4.294-4.156c0-.911.129-1.3.907-2.991l3.244-8.453-6.631,0c-3.64,0-5.461-1.3-5.463-4.156,0-2.73,1.817-4.031,5.457-4.034l10.27-.009,5.839-14.435-6.89.006c-3.77,0-5.591-1.3-5.594-4.286,0-2.86,1.817-4.162,5.587-4.164l10.14-.009,4.672-11.444c1.167-2.991,2.336-3.9,4.416-3.9a4.164,4.164,0,0,1,4.164,4.026,8.007,8.007,0,0,1-.778,3.121l-3.5,8.193Zm-23.772,22.9,14.561-.012L119.857,73.3l-14.561.012Z"/><path class="b" d="M173.147,111.608c0,4.81-.255,5.98-1.293,8.321a10.034,10.034,0,0,1-17.291.014c-1.171-2.339-1.3-3.379-1.306-8.318L153.2,45.712c0-6.11,3.892-10.144,9.872-10.149,3.51,0,5.591,1.166,8.195,4.414l38.389,48.2-.032-39.391c0-4.81.256-5.98,1.294-8.322a10.161,10.161,0,0,1,8.706-4.946,9.943,9.943,0,0,1,8.584,4.933c1.172,2.339,1.3,3.379,1.308,8.319l.051,64.612c0,4.29-.645,6.241-2.723,8.452a8.448,8.448,0,0,1-6.758,3,8.629,8.629,0,0,1-6.242-2.465c-.781-.649-.781-.649-4.034-4.677l-36.7-46.642Z"/><path class="b" d="M295.872,66.659c5.594,6.1,8.591,14.553,8.6,23.914.016,19.5-13.623,34.2-31.824,34.216a31.889,31.889,0,0,1-23.409-10.382c-5.725-6.235-8.592-14.423-8.6-24.3-.015-18.981,13.883-33.812,31.954-33.827A31.827,31.827,0,0,1,295.872,66.659Zm-36.383,23.69c.008,9.62,5.473,16.636,12.754,16.63,7.54-.006,13.385-7.291,13.377-16.521-.007-9.1-5.863-16.376-13.4-16.37C265.066,74.093,259.482,81.249,259.489,90.349Z"/><path class="b" d="M335.419,71.827l15.73-.013c4.29,0,5.33.126,7.412,1.165a8.978,8.978,0,0,1,.012,15.47c-2.079,1.042-2.989,1.173-7.409,1.176l-15.731.013.018,21.841c0,4.81-.255,5.98-1.293,8.32a10.034,10.034,0,0,1-17.291.014c-1.172-2.339-1.3-3.378-1.307-8.318l-.048-60.323c0-5.98.384-7.671,2.072-10.012,2.337-3.122,5.326-4.424,9.876-4.428l2.471,0,24.44-.02c4.291,0,5.331.126,7.412,1.165a8.978,8.978,0,0,1,.012,15.47c-2.079,1.042-3.119,1.173-7.409,1.176l-18.981.016Z"/><path class="b" d="M372.723,67.507c-.006-6.63,3.761-10.923,9.611-10.928,4.291,0,7.413,2.2,9.5,6.753,5.326-5.335,8.7-7.158,13.125-7.161a9.765,9.765,0,0,1,9.758,9.872c0,4.55-1.945,6.372-9.743,8.718-10.4,3.389-13.126,5.991-13.12,12.752l.019,24.05c0,4.551-.126,5.721-1.294,7.932a9.489,9.489,0,0,1-16.511.013c-1.171-2.209-1.3-3.249-1.306-7.929Z"/><path class="b" d="M482.767,112.921c0,6.76-3.892,11.313-9.612,11.318-4.551,0-7.673-2.465-9.627-7.533-4.805,5.984-8.7,7.938-15.724,7.943a27.9,27.9,0,0,1-18.856-7.265q-11.319-9.936-11.333-27.292c-.008-10.53,3.106-18.464,9.991-25.229,5.715-5.725,12.473-8.72,19.883-8.726,6.761-.006,10.792,1.941,16.257,7.527,2.076-5.072,4.934-7.154,9.484-7.158a9.52,9.52,0,0,1,9.5,9.743ZM436.726,90.207c.008,10.01,5.213,16.636,13.274,16.629,7.8,0,13.125-6.77,13.117-16.521s-5.343-16.376-13.273-16.369C442.043,73.952,436.718,80.586,436.726,90.207Z"/><path class="b" d="M496.494,67.538c-.005-6.63,3.761-11.053,9.482-11.058,3.77,0,5.851,1.3,9.235,6.233,5.326-4.815,10-6.638,16.765-6.644a26.4,26.4,0,0,1,13,3.24c1.951,1.039,3.122,2.208,5.334,5.066,7.666-6.247,12.734-8.331,20.015-8.336,13.26-.011,23.018,9.341,23.028,22.082l.027,33.281c0,4.55-.125,5.721-1.294,7.931a9.488,9.488,0,0,1-16.51.014c-1.172-2.209-1.3-3.249-1.307-7.93l-.023-28.99c0-5.851-3.908-9.878-9.758-9.873s-10.008,4.038-10,9.888l.023,28.991c0,4.55-.125,5.72-1.293,7.931a9.488,9.488,0,0,1-16.511.013c-1.171-2.209-1.3-3.249-1.306-7.929l-.022-27.171c0-7.41-3.65-11.7-9.89-11.692a9.561,9.561,0,0,0-9.872,9.889l.023,28.99c0,4.551-.125,5.721-1.294,7.932a9.489,9.489,0,0,1-16.511.013c-1.171-2.209-1.3-3.249-1.306-7.93Z"/><path class="b" d="M624.164,96.557c2.865,7.668,7.678,11.3,15.219,11.3,4.55,0,5.72-.394,15.726-5.343a10.822,10.822,0,0,1,4.16-.913,8.166,8.166,0,0,1,7.676,7.8c.007,7.8-13.9,15.09-28.589,15.1-20.41.017-34.722-13.752-34.738-33.253C603.6,70.963,617.5,56,636.351,55.986c17.811-.014,31.733,14.405,31.748,32.995,0,5.331-2.464,7.543-8.314,7.548Zm25.08-13.02a20.6,20.6,0,0,0-2.736-7.019,11.893,11.893,0,0,0-9.754-4.932c-6.37,0-10.527,3.649-13.251,11.971Z"/><path class="b" d="M746.7,66.167c2.2-7.411,4.8-10.014,10.132-10.018a9.633,9.633,0,0,1,9.628,9.353c0,1.82-.257,2.99-1.424,6.5L751.55,110.5c-3.5,10.013-6.88,13.525-13.12,13.53-5.33.005-8.583-2.853-11.058-10.131l-8.21-23.915-6.614,20.547c-3.241,10.143-6.489,13.526-12.6,13.531-5.33,0-9.364-3.5-11.709-10.132L673.516,71.947c-1.433-3.9-1.564-4.549-1.565-6.629a9.385,9.385,0,0,1,9.483-9.109c5.33,0,7.932,2.594,10.148,9.873l8.473,28.464,9.337-29.519c1.945-6.241,4.8-8.714,10-8.717,4.681,0,7.543,2.593,9.5,8.7l9.383,29.374Z"/><path class="b" d="M825.677,66.235c5.6,6.105,8.593,14.554,8.6,23.914.016,19.5-13.623,34.2-31.823,34.216a31.89,31.89,0,0,1-23.41-10.382c-5.725-6.235-8.592-14.423-8.6-24.3C770.429,70.7,784.328,55.868,802.4,55.853A31.825,31.825,0,0,1,825.677,66.235ZM789.3,89.924c.008,9.621,5.474,16.637,12.754,16.631,7.54-.006,13.385-7.291,13.377-16.521-.007-9.1-5.863-16.376-13.4-16.37C794.873,73.669,789.288,80.824,789.3,89.924Z"/><path class="b" d="M844.615,67.129c0-6.629,3.762-10.922,9.613-10.927,4.29,0,7.411,2.2,9.5,6.752,5.326-5.334,8.705-7.157,13.125-7.161a9.765,9.765,0,0,1,9.757,9.873c0,4.55-1.944,6.372-9.743,8.718-10.4,3.388-13.126,5.991-13.12,12.751l.02,24.051c0,4.55-.126,5.72-1.294,7.931a9.488,9.488,0,0,1-16.511.013c-1.172-2.209-1.3-3.249-1.307-7.929Z"/><path class="b" d="M912.875,111.146c0,4.551-.126,5.721-1.294,7.932a9.489,9.489,0,0,1-16.511.013c-1.173-2.209-1.3-3.249-1.306-7.929l-.057-70.853c0-4.55.125-5.72,1.294-7.931a9.489,9.489,0,0,1,16.511-.013c1.172,2.209,1.3,3.249,1.306,7.929l.031,38.352L930.385,60.69c3.766-3.9,5.716-4.944,8.706-4.946a9.35,9.35,0,0,1,9.368,9.483c0,2.859-1.166,4.811-5.193,8.584l-11.822,11.45L948.1,105.918c3.253,4.028,4.165,5.847,4.167,8.447a9.686,9.686,0,0,1-9.744,9.5c-3.509,0-5.59-1.425-9.235-6.1L912.859,91.646Z"/></svg>