<svg xmlns="http://www.w3.org/2000/svg" viewBox="0 0 1024 161"><defs><style>.a{fill:#90a4ae;}.b{fill:#03a9f4;}</style></defs><title>no-graphql</title><path class="a" d="M190.009,64.793l4.542-11.314c1.3-3.121,2.336-4.032,4.547-4.034a4.257,4.257,0,0,1,4.163,4.027,7.136,7.136,0,0,1-.778,3.121l-3.243,8.193,6.24,0c3.9,0,5.721,1.3,5.724,4.156,0,2.99-1.817,4.291-5.717,4.294l-9.881.008-5.838,14.435,6.89-.006c3.64,0,5.461,1.3,5.463,4.027,0,2.86-1.816,4.161-5.456,4.164l-10.141.008-4.67,11.7c-1.168,2.991-2.337,3.9-4.417,3.9a4.165,4.165,0,0,1-4.164-4.027,6.687,6.687,0,0,1,.777-2.99l3.374-8.583-14.431.011-4.671,11.574c-1.3,2.991-2.336,4.032-4.546,4.034a4.3,4.3,0,0,1-4.294-4.157c0-.91.129-1.3.908-2.991l3.243-8.452L147,95.9c-3.639,0-5.46-1.3-5.463-4.156,0-2.73,1.817-4.032,5.457-4.035l10.271-.008L163.1,73.265l-6.89.006c-3.77,0-5.591-1.3-5.593-4.286,0-2.86,1.816-4.162,5.586-4.165l10.141-.008,4.671-11.444c1.168-2.992,2.336-3.9,4.417-3.9a4.165,4.165,0,0,1,4.163,4.027,8,8,0,0,1-.777,3.121l-3.5,8.193Zm-23.772,22.9,14.561-.012,5.838-14.435-14.56.012Z"/><path class="b" d="M239.927,111.555c0,4.81-.256,5.98-1.294,8.321a10.034,10.034,0,0,1-17.29.014c-1.172-2.339-1.3-3.379-1.307-8.319l-.053-65.913c0-6.11,3.892-10.143,9.872-10.148,3.51,0,5.591,1.166,8.2,4.414l38.389,48.2-.031-39.392c0-4.81.255-5.98,1.293-8.321a10.165,10.165,0,0,1,8.706-4.947,9.947,9.947,0,0,1,8.585,4.933c1.172,2.339,1.3,3.379,1.307,8.319l.052,64.613c0,4.29-.646,6.24-2.724,8.452a8.448,8.448,0,0,1-6.758,3,8.632,8.632,0,0,1-6.242-2.464c-.78-.65-.78-.65-4.034-4.677l-36.7-46.642Z"/><path class="b" d="M362.651,66.605c5.595,6.1,8.592,14.554,8.6,23.914.016,19.5-13.623,34.2-31.823,34.216a31.886,31.886,0,0,1-23.409-10.381c-5.726-6.236-8.593-14.423-8.6-24.3C307.4,71.069,321.3,56.238,339.372,56.224A31.822,31.822,0,0,1,362.651,66.605ZM326.269,90.3c.007,9.621,5.473,16.636,12.753,16.63,7.54-.006,13.385-7.291,13.377-16.521-.006-9.1-5.863-16.376-13.4-16.37C331.846,74.04,326.261,81.195,326.269,90.3Z"/><path class="b" d="M431.3,89.821c-4.29,0-5.331-.126-7.411-1.164a8.977,8.977,0,0,1-.013-15.47c2.08-1.042,2.989-1.173,7.409-1.177L450.651,72c7.54-.006,10.664,3.761,10.671,12.6a42.429,42.429,0,0,1-11.287,29.26c-7.4,7.935-16.632,11.713-28.462,11.723-25.351.021-43.047-18.426-43.068-45.077-.022-26.911,18.424-46.037,44.425-46.057,16.771-.014,32.508,8.684,32.515,17.914a9.113,9.113,0,0,1-8.833,8.848c-2.73,0-3.64-.387-12.1-5.71a26.868,26.868,0,0,0-12.483-3.241c-13.261.011-22.351,11.328-22.338,27.839.013,16.9,8.862,27.684,22.642,27.673,6.241-.005,10.919-2.219,14.3-6.642,2.207-2.991,3.245-5.593,4.281-11.314Z"/><path class="b" d="M471.575,67.428c-.006-6.63,3.761-10.923,9.611-10.928,4.29,0,7.412,2.2,9.5,6.752,5.326-5.334,8.7-7.157,13.125-7.16a9.765,9.765,0,0,1,9.758,9.872c0,4.55-1.945,6.372-9.743,8.718-10.4,3.389-13.126,5.991-13.121,12.752l.019,24.05c0,4.551-.125,5.721-1.293,7.932a9.49,9.49,0,0,1-16.511.013c-1.171-2.209-1.3-3.249-1.306-7.929Z"/><path class="b" d="M581.618,112.842c.006,6.76-3.891,11.313-9.611,11.318-4.55,0-7.673-2.465-9.626-7.533-4.806,5.984-8.7,7.937-15.725,7.943a27.9,27.9,0,0,1-18.856-7.265q-11.319-9.936-11.333-27.292c-.008-10.531,3.106-18.464,9.991-25.229,5.715-5.725,12.473-8.72,19.883-8.726C553.1,56.052,557.134,58,562.6,63.585c2.076-5.072,4.935-7.154,9.485-7.158a9.521,9.521,0,0,1,9.5,9.743Zm-46.04-22.715c.008,10.011,5.214,16.637,13.274,16.63,7.8-.006,13.125-6.77,13.117-16.521S556.626,73.86,548.7,73.867C540.9,73.873,535.57,80.507,535.578,90.127Z"/><path class="b" d="M595.347,67.719c-.006-7.02,3.5-11.313,9.221-11.318,4.42,0,6.761,1.815,9.236,7.273,5.066-5.594,9.744-7.678,17.024-7.684,15.86-.012,28.223,14.668,28.238,33.649.016,19.891-12.582,34.851-29.353,34.864-5.98,0-9.621-1.292-15.215-5.577l.015,18.461c0,4.679-.126,5.849-1.294,7.93a9.488,9.488,0,0,1-16.511.014c-1.171-2.21-1.3-3.249-1.306-7.929Zm18.608,22.346c.008,9.88,5.213,16.636,12.883,16.63,7.411-.006,13.126-7.161,13.118-16.521-.007-9.23-5.733-16.376-13.143-16.37C619.272,73.81,613.948,80.575,613.955,90.065Z"/><path class="b" d="M688.68,61.4c6.5-3.905,11.436-5.469,17.547-5.474A24.639,24.639,0,0,1,723,62.287c4.685,4.286,6.508,9.484,6.515,17.805l.025,31.2c0,4.55-.125,5.721-1.294,7.932a9.489,9.489,0,0,1-16.51.013c-1.172-2.21-1.3-3.249-1.307-7.929l-.02-25.741c-.007-8.191-4.041-13.128-10.671-13.123-6.37.006-11.047,5.079-11.041,11.84l.021,27.041c0,4.55-.125,5.72-1.293,7.931a9.489,9.489,0,0,1-16.511.013c-1.171-2.209-1.3-3.249-1.306-7.929l-.057-70.852c0-4.551.126-5.721,1.294-7.932a9.488,9.488,0,0,1,16.51-.013c1.172,2.209,1.3,3.249,1.307,7.929Z"/><path class="b" d="M804.676,120.2a43.4,43.4,0,0,1-21.057,5.087c-25.611.021-43.567-18.815-43.588-45.727-.021-26.65,17.774-45.385,43.125-45.406,25.092-.02,42.917,18.947,42.939,45.728.009,10.79-2.325,18.722-8.038,27.957l5.2,4.416c4.424,3.637,5.6,5.456,5.6,8.836a9.265,9.265,0,0,1-9.223,9.238c-2.6,0-4.42-.906-8.193-4.283Zm-18.735-17.015a9.016,9.016,0,0,1-2.6-6.108c0-4.551,4.153-8.974,8.573-8.977,2.21,0,4.681,1.166,7.153,3.374l2.862,2.468A32.743,32.743,0,0,0,804.9,78.992c-.013-16.251-8.732-27.034-21.733-27.024-13.39.011-21.962,10.808-21.948,27.449.014,17.42,8.6,28.074,22.383,28.063a12.9,12.9,0,0,0,5.719-1.175Z"/><path class="b" d="M878.2,105.194c4.29,0,5.33.126,7.411,1.164a8.979,8.979,0,0,1,.012,15.471c-2.079,1.042-2.989,1.172-7.409,1.176l-23.531.018c-7.02.006-8.84-.512-11.7-3.24-2.731-2.858-3.253-4.678-3.258-11.828l-.048-59.672c0-4.81.255-5.981,1.293-8.322a10.165,10.165,0,0,1,8.707-4.947,9.949,9.949,0,0,1,8.584,4.933c1.172,2.34,1.3,3.38,1.306,8.32l.046,56.942Z"/></svg>