<svg xmlns="http://www.w3.org/2000/svg" viewBox="0 0 1024 161"><defs><style>.a{fill:#90a4ae;}.b{fill:#ff4081;}</style></defs><title>no-rest</title><path class="a" d="M311.486,64.7l4.542-11.314c1.3-3.121,2.337-4.032,4.547-4.034a4.257,4.257,0,0,1,4.163,4.027,7.136,7.136,0,0,1-.778,3.121l-3.243,8.192,6.24,0c3.9,0,5.721,1.3,5.724,4.155,0,2.991-1.817,4.292-5.717,4.3l-9.881.008-5.838,14.435,6.89-.006c3.64,0,5.462,1.3,5.464,4.026,0,2.86-1.817,4.162-5.457,4.165L308,95.77l-4.671,11.7c-1.167,2.991-2.336,3.9-4.416,3.9a4.165,4.165,0,0,1-4.164-4.027,6.7,6.7,0,0,1,.778-2.991l3.373-8.583-14.431.012L279.8,107.363c-1.3,2.991-2.336,4.032-4.547,4.034a4.3,4.3,0,0,1-4.293-4.157c0-.91.129-1.3.908-2.991L275.11,95.8l-6.63.006c-3.641,0-5.461-1.3-5.464-4.156,0-2.73,1.817-4.032,5.458-4.035l10.27-.008,5.838-14.436-6.89.006c-3.77,0-5.591-1.3-5.594-4.285,0-2.86,1.817-4.162,5.587-4.165l10.141-.008L292.5,53.271c1.168-2.992,2.336-3.9,4.417-3.9a4.165,4.165,0,0,1,4.163,4.027,8.007,8.007,0,0,1-.777,3.121l-3.5,8.193ZM287.714,87.6l14.56-.012,5.839-14.435-14.56.012Z"/><path class="b" d="M361.4,111.458c0,4.81-.255,5.98-1.293,8.321a10.034,10.034,0,0,1-17.291.013c-1.172-2.338-1.3-3.378-1.307-8.318l-.053-65.913c0-6.11,3.892-10.143,9.873-10.148,3.51,0,5.591,1.166,8.193,4.414l38.391,48.2-.032-39.392c0-4.81.255-5.98,1.293-8.321a10.165,10.165,0,0,1,8.707-4.947,9.943,9.943,0,0,1,8.584,4.933c1.172,2.339,1.3,3.379,1.306,8.319l.052,64.612c0,4.29-.645,6.241-2.723,8.453a8.445,8.445,0,0,1-6.758,3,8.637,8.637,0,0,1-6.242-2.465c-.78-.65-.78-.65-4.034-4.678L361.371,70.9Z"/><path class="b" d="M484.127,66.508c5.6,6.105,8.593,14.554,8.6,23.914.015,19.5-13.624,34.2-31.824,34.217A31.891,31.891,0,0,1,437.5,114.257c-5.726-6.236-8.593-14.424-8.6-24.3-.016-18.981,13.883-33.812,31.954-33.827A31.823,31.823,0,0,1,484.127,66.508ZM447.745,90.2c.008,9.62,5.474,16.636,12.754,16.63,7.541-.006,13.385-7.291,13.377-16.521-.006-9.1-5.862-16.376-13.4-16.37C453.323,73.943,447.738,81.1,447.745,90.2Z"/><path class="b" d="M523.707,111.328c0,4.81-.255,5.98-1.293,8.321a10.035,10.035,0,0,1-17.291.014c-1.172-2.339-1.3-3.379-1.307-8.319l-.048-60.323c0-6.11.384-7.67,2.072-10.011,2.338-3.122,5.327-4.425,9.877-4.428l2.47,0,17.68-.015c18.331-.014,30.3,10.507,30.314,26.887,0,7.02-2.33,13.393-6.747,17.556-3.377,3.253-6.5,4.686-13.515,6.251l16.915,18.708c3.774,4.157,4.815,6.106,4.818,8.966a9.963,9.963,0,0,1-10,9.758c-3.51,0-5.721-1.425-9.5-6.233l-24.466-30.4Zm12.321-37.191c6.24,0,10.657-4.039,10.652-9.759,0-5.981-4.818-10.527-11.058-10.522l-11.961.01.016,20.281Z"/><path class="b" d="M599.021,70.836l16.641-.013c4.29,0,5.33.126,7.411,1.164a8.979,8.979,0,0,1,.012,15.471c-2.079,1.041-3.119,1.172-7.409,1.176l-16.641.013.013,16.77,18.591-.014c4.29,0,5.331.125,7.411,1.164a8.978,8.978,0,0,1,.013,15.471c-2.08,1.041-2.989,1.172-7.409,1.175l-24.051.019c-6.761.006-8.581-.512-11.313-3.24-2.6-2.6-3.124-4.418-3.129-11.179l-.047-57.852c0-5.98.384-7.67,2.073-10.012,2.337-3.121,5.326-4.424,9.876-4.428l2.47,0,24.051-.019c4.29,0,5.331.126,7.411,1.165a8.978,8.978,0,0,1,.013,15.47c-2.08,1.041-2.989,1.172-7.409,1.176l-18.591.015Z"/><path class="b" d="M693.98,47.1a8.941,8.941,0,0,1-8.833,9.237c-1.949,0-1.949,0-6.891-1.815a27.249,27.249,0,0,0-8.842-1.683c-5.85.005-10.008,3-10,7.158a5.893,5.893,0,0,0,2.734,4.939c2.341,1.688,2.341,1.688,10.664,3.891,19.114,5.185,27.311,13.369,27.322,27.409a29.586,29.586,0,0,1-7.394,19.9c-5.456,5.985-14.553,9.242-25.6,9.251-17.291.013-29.516-6.087-29.523-14.667,0-5.2,3.893-9.493,8.573-9.5,2.47,0,2.47,0,11.964,3.63a28.923,28.923,0,0,0,9.751,1.942c6.631,0,10.918-3.648,10.914-9.108a6.888,6.888,0,0,0-3.386-6.238c-2.471-1.688-4.292-2.337-13.784-5.189-10.143-2.983-14.175-4.929-17.818-8.567-3.643-3.506-5.6-9.095-5.6-15.726-.012-16.12,13.369-27.7,31.959-27.716C684.09,34.237,693.975,39.559,693.98,47.1Z"/><path class="b" d="M744.51,111.151c0,4.81-.256,5.98-1.294,8.321a10.033,10.033,0,0,1-17.29.014c-1.172-2.339-1.3-3.379-1.307-8.319l-.045-56.942-9.881.008c-4.29,0-5.33-.126-7.411-1.164a8.977,8.977,0,0,1-.012-15.47c2.079-1.042,2.988-1.173,7.409-1.177l39.261-.031c4.29,0,5.331.126,7.412,1.164a8.978,8.978,0,0,1,.012,15.47c-2.079,1.042-2.989,1.173-7.409,1.177l-9.491.007Z"/></svg>