<svg xmlns="http://www.w3.org/2000/svg" viewBox="0 0 1024 161"><defs><style>.a{fill:#90a4ae;}.b{fill:#ff4081;}</style></defs><title>no-web-api</title><path class="a" d="M226.571,64.764l4.542-11.314c1.3-3.121,2.337-4.032,4.547-4.034a4.257,4.257,0,0,1,4.163,4.027,7.129,7.129,0,0,1-.778,3.12L235.8,64.756l6.24,0c3.9,0,5.721,1.3,5.724,4.156,0,2.99-1.817,4.292-5.717,4.3l-9.881.007L226.33,87.645l6.89,0c3.64,0,5.462,1.3,5.464,4.026,0,2.859-1.817,4.161-5.457,4.164l-10.141.008-4.671,11.7c-1.167,2.991-2.336,3.9-4.416,3.9a4.165,4.165,0,0,1-4.164-4.027,6.684,6.684,0,0,1,.778-2.991l3.373-8.583-14.431.012-4.671,11.574c-1.3,2.991-2.336,4.032-4.547,4.034a4.3,4.3,0,0,1-4.293-4.157c0-.91.129-1.3.908-2.991l3.243-8.453-6.63.006c-3.641,0-5.461-1.3-5.464-4.156,0-2.73,1.817-4.032,5.458-4.035l10.27-.008,5.838-14.436-6.89.006c-3.77,0-5.591-1.3-5.594-4.285,0-2.86,1.817-4.162,5.587-4.165l10.141-.008,4.671-11.444c1.168-2.991,2.336-3.9,4.417-3.9a4.165,4.165,0,0,1,4.163,4.026,8.007,8.007,0,0,1-.777,3.122l-3.5,8.192ZM202.8,87.664l14.56-.012L223.2,73.217l-14.56.012Z"/><path class="b" d="M276.489,111.526c0,4.81-.255,5.98-1.293,8.321a10.034,10.034,0,0,1-17.291.013c-1.172-2.339-1.3-3.379-1.307-8.318l-.053-65.913c0-6.11,3.892-10.143,9.872-10.148,3.511,0,5.592,1.165,8.194,4.414L313,88.1,312.97,48.7c0-4.81.255-5.98,1.293-8.321a10.16,10.16,0,0,1,8.707-4.947,9.945,9.945,0,0,1,8.584,4.933c1.172,2.339,1.3,3.379,1.306,8.319l.052,64.612c0,4.29-.645,6.241-2.723,8.453a8.447,8.447,0,0,1-6.758,3,8.632,8.632,0,0,1-6.242-2.464c-.78-.65-.78-.65-4.034-4.678l-36.7-46.642Z"/><path class="b" d="M399.212,66.576c5.6,6.105,8.593,14.553,8.6,23.914.015,19.5-13.624,34.2-31.824,34.216a31.886,31.886,0,0,1-23.409-10.381c-5.726-6.236-8.593-14.424-8.6-24.3-.015-18.981,13.884-33.813,31.955-33.827A31.823,31.823,0,0,1,399.212,66.576ZM362.83,90.266c.008,9.62,5.474,16.636,12.754,16.63,7.541-.006,13.385-7.291,13.377-16.521-.006-9.1-5.862-16.376-13.4-16.37C368.408,74.011,362.823,81.166,362.83,90.266Z"/><path class="b" d="M453.666,112.684c-2.464,8.192-7.011,11.965-14.421,11.972-5.721,0-11.054-3.761-12.228-8.83l-16.043-65.51c-.783-3.379-.913-4.029-.915-5.85a9.464,9.464,0,0,1,9.613-9.368,9.137,9.137,0,0,1,7.023,3.114c1.561,1.82,2.212,3.119,3.126,7.538l10.7,45.754L455.3,44.3q2.723-8.973,10.523-8.979c5.46,0,8.583,2.723,10.537,8.962l15.118,47.18,10.105-45.51c1.813-7.8,4.671-10.924,10.392-10.929a9.627,9.627,0,0,1,9.757,9.613c0,1.82-.128,2.21-.9,5.851l-15.16,63.2c-1.685,7.022-6.361,10.924-13.122,10.93-6.89.006-11.053-3.371-13.4-10.909L465.854,72.763Z"/><path class="b" d="M544.808,96.621c2.865,7.668,7.679,11.3,15.219,11.3,4.55,0,5.72-.394,15.726-5.342a10.826,10.826,0,0,1,4.16-.913,8.165,8.165,0,0,1,7.676,7.794c.007,7.8-13.9,15.091-28.589,15.1-20.41.016-34.722-13.752-34.738-33.253C524.246,71.026,538.145,56.064,557,56.049c17.811-.014,31.733,14.4,31.748,33,0,5.33-2.464,7.542-8.314,7.547ZM569.888,83.6a20.6,20.6,0,0,0-2.736-7.018,11.89,11.89,0,0,0-9.754-4.933c-6.37.006-10.527,3.649-13.251,11.972Z"/><path class="b" d="M618.307,61.591c5.717-4.165,9.745-5.6,15.465-5.6,16.381-.013,29.654,15.057,29.669,34.037.016,19.5-12.712,34.461-29.483,34.475-7.15.006-11.833-2.2-15.867-7.527-2.076,4.942-4.8,7.154-8.965,7.157-5.85.005-9.883-4.152-9.888-10.132l-.059-73.453c0-4.55.126-5.72,1.294-7.931a9.487,9.487,0,0,1,16.51-.013c1.172,2.209,1.3,3.249,1.307,7.929ZM618.2,90.062c.008,9.62,5.6,16.636,13.274,16.629,7.41,0,13-7.16,12.987-16.521-.007-9.23-5.6-16.376-13.013-16.37C623.907,73.806,618.192,80.831,618.2,90.062Z"/><path class="b" d="M689.387,106.645l-2.074,7.543c-2.074,7.541-4.932,10.534-10.132,10.539-5.46,0-10.144-4.414-10.148-9.614,0-2.21.128-2.86,1.684-6.891L691.288,45.8c2.6-7.022,7.792-11.056,14.682-11.062s12.093,4.021,14.7,11.039l22.671,62.384c1.564,4.029,1.694,4.809,1.7,6.889,0,5.2-4.543,9.625-10.133,9.629-5.2,0-7.933-2.854-10.149-10.523l-2.086-7.538ZM706.117,55.8l-10.5,33.03,21.06-.018Z"/><path class="b" d="M772.759,111.129c0,4.81-.256,5.98-1.294,8.321a10.035,10.035,0,0,1-17.29.013c-1.172-2.338-1.3-3.508-1.307-8.318l-.049-60.323c0-6.11.385-7.67,2.073-10.011,2.337-3.123,5.326-4.425,9.877-4.429l2.469,0,17.941-.014c9.881-.008,16.773,2.2,22.107,7.133,5.724,5.325,9.111,13.643,9.118,22.093.006,7.281-2.459,14.693-6.614,19.766-5.066,6.245-12.344,9.24-21.964,9.248l-15.08.012Zm9.983-33.81c8.061-.006,13.257-4.691,13.251-11.711,0-7.15-4.82-11.957-12.23-11.951l-11.05.01.019,23.661Z"/><path class="b" d="M824.823,48.294c0-4.81.255-5.98,1.293-8.321a10.165,10.165,0,0,1,8.706-4.947,9.943,9.943,0,0,1,8.584,4.933c1.173,2.34,1.3,3.38,1.308,8.32l.05,62.792c0,4.81-.255,5.98-1.293,8.321a10.035,10.035,0,0,1-17.291.014c-1.172-2.339-1.3-3.379-1.306-8.319Z"/></svg>