<svg xmlns="http://www.w3.org/2000/svg" viewBox="0 0 1024 161"><defs><style>.a{fill:#90a4ae;}.b{fill:#ff4081;}</style></defs><title>object-oriented</title><path class="a" d="M79.3,64.882,83.84,53.567c1.3-3.121,2.336-4.031,4.547-4.033a4.255,4.255,0,0,1,4.163,4.027,7.129,7.129,0,0,1-.778,3.12l-3.243,8.194,6.24-.006c3.9,0,5.721,1.3,5.724,4.156,0,2.99-1.817,4.291-5.717,4.294l-9.88.009L79.057,87.763l6.89-.006c3.64,0,5.461,1.3,5.463,4.026,0,2.86-1.816,4.162-5.456,4.165l-10.141.008-4.67,11.7c-1.168,2.991-2.337,3.9-4.417,3.9a4.164,4.164,0,0,1-4.164-4.026,6.7,6.7,0,0,1,.777-2.991l3.374-8.583-14.431.012-4.671,11.574c-1.3,2.991-2.336,4.032-4.546,4.034a4.306,4.306,0,0,1-4.294-4.157c0-.91.129-1.3.908-2.991l3.243-8.453-6.63,0c-3.64,0-5.461-1.3-5.464-4.155,0-2.73,1.818-4.032,5.457-4.035l10.271-.008L52.4,73.354l-6.891,0c-3.77,0-5.591-1.3-5.593-4.286,0-2.86,1.816-4.161,5.586-4.164L55.638,64.9l4.671-11.443c1.168-2.992,2.337-3.9,4.417-3.9a4.164,4.164,0,0,1,4.163,4.027,8,8,0,0,1-.777,3.12l-3.5,8.194Zm-23.772,22.9,14.561-.012,5.838-14.436-14.56.012Z"/><path class="b" d="M192.191,80.132c.022,27.041-17.254,45.645-42.475,45.666-26.131.02-43.176-18.3-43.2-46.378-.011-13.91,5.049-26.134,14.143-34.072a42.732,42.732,0,0,1,28.723-10.683C174.734,34.644,192.169,53.091,192.191,80.132ZM127.708,79.4c.014,17.421,8.473,28.6,21.864,28.584,13-.01,21.442-11.068,21.428-27.839s-8.472-27.684-21.473-27.673C136.657,52.485,127.7,63.413,127.708,79.4Z"/><path class="b" d="M222.594,61.907c5.716-4.164,9.745-5.6,15.465-5.6,16.381-.013,29.653,15.056,29.669,34.037.015,19.5-12.713,34.461-29.483,34.474-7.151.006-11.833-2.2-15.868-7.527-2.076,4.942-4.8,7.154-8.964,7.158-5.85,0-9.884-4.153-9.889-10.133l-.058-73.453c0-4.55.125-5.72,1.293-7.931a9.489,9.489,0,0,1,16.511-.013c1.172,2.209,1.3,3.249,1.307,7.929Zm-.108,28.471c.008,9.621,5.6,16.636,13.274,16.63,7.41-.006,13-7.161,12.987-16.521-.007-9.23-5.6-16.376-13.013-16.37C228.193,74.123,222.479,81.147,222.486,90.378Z"/><path class="b" d="M298.82,39.225a11.116,11.116,0,1,1-10.93-11.041A11.071,11.071,0,0,1,298.82,39.225ZM278.693,69.4c0-4.55.125-5.72,1.294-7.931a9.488,9.488,0,0,1,16.51-.013c1.172,2.209,1.3,3.249,1.307,7.929l.054,68.253c0,4.679-.125,5.849-1.294,7.93a9.487,9.487,0,0,1-16.51.014c-1.172-2.209-1.3-3.249-1.306-7.929Z"/><path class="b" d="M328.765,96.793c2.865,7.668,7.679,11.3,15.219,11.3,4.55,0,5.72-.394,15.726-5.342a10.827,10.827,0,0,1,4.16-.914,8.167,8.167,0,0,1,7.676,7.8c.007,7.8-13.9,15.091-28.588,15.1-20.411.017-34.723-13.752-34.739-33.253C308.2,71.2,322.1,56.237,340.952,56.222c17.811-.014,31.733,14.4,31.748,33,0,5.33-2.464,7.542-8.314,7.547Zm25.08-13.02a20.61,20.61,0,0,0-2.736-7.019,11.892,11.892,0,0,0-9.754-4.932c-6.37.006-10.527,3.649-13.251,11.971Z"/><path class="b" d="M428.823,60.052a10.2,10.2,0,0,1,5.337,8.706c0,4.68-3.373,8.583-7.534,8.587-1.69,0-2.21-.129-6.892-1.945a18.653,18.653,0,0,0-6.891-1.425c-8.19.007-14.035,6.9-14.027,16.522.008,9.88,5.863,16.376,14.573,16.369a18.792,18.792,0,0,0,7.539-1.826c3.249-1.562,3.769-1.693,5.459-1.694,4.421,0,7.933,3.763,7.937,8.7a9.2,9.2,0,0,1-3.634,7.024c-4.548,3.384-11.956,5.6-19.107,5.605-9.36.008-17.163-3.366-23.148-9.862-6.116-6.625-8.722-13.9-8.73-24.564-.009-10.4,3.494-19.5,9.86-25.229a34.667,34.667,0,0,1,22.744-8.858A35.569,35.569,0,0,1,428.823,60.052Z"/><path class="b" d="M471.1,111.5c0,4.55-.125,5.72-1.294,7.931a9.489,9.489,0,0,1-16.511.013c-1.171-2.209-1.3-3.249-1.306-7.929l-.029-36.791c-5.07,0-7.931-.774-9.623-2.852a8.775,8.775,0,0,1-2.214-5.719,8.235,8.235,0,0,1,7.4-8.456,16.274,16.274,0,0,1,4.42-.264l-.008-9.88c0-4.55.126-5.72,1.294-7.8a9.409,9.409,0,0,1,8.316-4.816,9.5,9.5,0,0,1,8.194,4.673c1.172,2.209,1.3,3.249,1.307,7.93l.008,9.88,3.51,0c4.16,0,5.2.127,7.281,1.165a8.576,8.576,0,0,1,4.3,7.406,8.8,8.8,0,0,1-4.284,7.544c-2.079,1.042-2.989,1.172-7.279,1.176l-3.51,0Z"/><path class="b" d="M576.919,79.824c.022,27.041-17.254,45.646-42.475,45.666-26.131.021-43.176-18.3-43.2-46.377-.011-13.911,5.049-26.135,14.144-34.072a42.73,42.73,0,0,1,28.722-10.685C559.462,34.336,576.9,52.783,576.919,79.824ZM512.436,79.1c.014,17.42,8.473,28.594,21.864,28.583,13-.01,21.442-11.067,21.428-27.838s-8.472-27.684-21.473-27.674C521.385,52.177,512.423,63.105,512.436,79.1Z"/><path class="b" d="M588,67.334c-.006-6.629,3.761-10.922,9.611-10.927,4.29,0,7.412,2.2,9.5,6.752,5.326-5.334,8.7-7.157,13.125-7.16a9.765,9.765,0,0,1,9.758,9.872c0,4.55-1.945,6.372-9.743,8.718-10.4,3.389-13.126,5.991-13.121,12.751l.019,24.051c0,4.55-.125,5.72-1.293,7.931a9.488,9.488,0,0,1-16.511.013c-1.171-2.209-1.3-3.249-1.306-7.929Z"/><path class="b" d="M658.536,38.938A11.116,11.116,0,1,1,647.605,27.9,11.07,11.07,0,0,1,658.536,38.938ZM637.759,69.115c0-4.55.125-5.72,1.293-7.931a9.489,9.489,0,0,1,16.511-.013c1.172,2.209,1.3,3.248,1.306,7.929l.034,42.251c0,4.55-.125,5.721-1.294,7.932a9.488,9.488,0,0,1-16.51.013c-1.172-2.209-1.3-3.249-1.307-7.929Z"/><path class="b" d="M687.882,96.506c2.866,7.668,7.679,11.3,15.219,11.3,4.55,0,5.72-.394,15.727-5.343a10.817,10.817,0,0,1,4.159-.913,8.167,8.167,0,0,1,7.677,7.8c.006,7.8-13.9,15.091-28.589,15.1-20.411.017-34.723-13.752-34.739-33.253-.016-20.28,13.883-35.242,32.733-35.257,17.811-.015,31.733,14.405,31.748,33,0,5.33-2.464,7.542-8.314,7.547Zm25.08-13.02a20.633,20.633,0,0,0-2.735-7.019,11.9,11.9,0,0,0-9.755-4.932c-6.37.005-10.527,3.649-13.25,11.971Z"/><path class="b" d="M742.274,67.471c0-6.76,3.892-11.183,9.742-11.187,4.29,0,7.022,1.944,8.845,6.622,5.586-5.2,10.135-7.028,17.545-7.034,6.631-.005,12.223,1.94,16.646,5.707,5.073,4.546,6.9,9.225,6.9,18.325l.025,31.331c0,4.551-.126,5.721-1.294,7.932a9.49,9.49,0,0,1-16.511.013c-1.171-2.209-1.3-3.249-1.306-7.93l-.021-26.78c-.006-7.41-4.17-12.088-10.671-12.083-6.11.006-10.785,4.949-10.781,11.32l.022,27.561c0,4.55-.125,5.72-1.294,7.931a9.488,9.488,0,0,1-16.51.013c-1.172-2.209-1.3-3.249-1.306-7.929Z"/><path class="b" d="M839.459,111.205c0,4.55-.125,5.721-1.293,7.931a9.489,9.489,0,0,1-16.511.013c-1.172-2.209-1.3-3.248-1.306-7.928l-.03-36.792c-5.07,0-7.93-.773-9.623-2.852a8.775,8.775,0,0,1-2.214-5.719,8.236,8.236,0,0,1,7.4-8.456,16.261,16.261,0,0,1,4.421-.263l-.009-9.881c0-4.55.126-5.72,1.294-7.8a9.408,9.408,0,0,1,8.317-4.817,9.507,9.507,0,0,1,8.194,4.673c1.171,2.21,1.3,3.249,1.306,7.93l.008,9.88,3.51,0c4.16,0,5.2.126,7.281,1.164a8.577,8.577,0,0,1,4.3,7.407,8.794,8.794,0,0,1-4.284,7.543c-2.079,1.042-2.99,1.173-7.28,1.176l-3.509,0Z"/><path class="b" d="M877.652,96.354c2.868,7.668,7.68,11.3,15.221,11.3,4.55,0,5.719-.394,15.726-5.342a10.823,10.823,0,0,1,4.16-.914,8.167,8.167,0,0,1,7.676,7.8c.005,7.8-13.9,15.091-28.59,15.1-20.41.016-34.722-13.753-34.738-33.254-.016-20.28,13.882-35.242,32.734-35.257,17.81-.014,31.732,14.405,31.747,33,0,5.33-2.464,7.542-8.315,7.547Zm25.081-13.02A20.59,20.59,0,0,0,900,76.315a11.892,11.892,0,0,0-9.754-4.932c-6.37.005-10.527,3.649-13.251,11.971Z"/><path class="b" d="M973.392,40.246c0-4.551.126-5.721,1.294-7.932A9.488,9.488,0,0,1,991.2,32.3c1.172,2.209,1.3,3.249,1.307,7.929l.058,72.673c0,6.89-3.5,10.923-9.612,10.928-4.68,0-7.282-2.074-9.236-7.533-4.026,5.594-9.095,7.937-16.5,7.943-8.711.007-16.384-4.277-21.85-11.942a40.963,40.963,0,0,1-7.169-22.745c-.007-10.141,4.665-20.675,11.679-26.791a29.434,29.434,0,0,1,18.066-7.034c5.719-.005,10.272,1.681,15.474,5.967ZM947.3,88.888c.008,9.621,5.6,16.636,13.274,16.63,7.41-.006,13-7.16,12.988-16.52-.007-9.231-5.6-16.377-13.014-16.371C953.007,72.633,947.292,79.658,947.3,88.888Z"/></svg>