<svg id="Calque_1" data-name="Calque 1" xmlns="http://www.w3.org/2000/svg" viewBox="0 0 692.019 133.593"><defs><style>.cls-1{fill:#ff4081;}.cls-2{fill:#aeea00;}.cls-3{fill:#03a9f4;}.cls-4{fill:#90a4ae;}</style></defs><title>f-plus-b-equals-love</title><rect class="cls-1" x="546.203" y="0.301" width="13.082" height="13.082"/><rect class="cls-1" x="562.705" y="0.301" width="13.082" height="13.082"/><rect class="cls-1" x="579.207" y="0.301" width="13.082" height="13.082"/><rect class="cls-1" x="629.072" y="0.301" width="13.082" height="13.082"/><rect class="cls-1" x="645.575" y="0.301" width="13.082" height="13.082"/><rect class="cls-1" x="662.077" y="0.301" width="13.082" height="13.082"/><rect class="cls-1" x="529.701" y="17.162" width="13.082" height="13.082"/><rect class="cls-1" x="546.203" y="17.162" width="13.082" height="13.082"/><rect class="cls-1" x="562.705" y="17.162" width="13.082" height="13.082"/><rect class="cls-1" x="579.207" y="17.162" width="13.082" height="13.082"/><rect class="cls-1" x="596.068" y="17.162" width="13.082" height="13.082"/><rect class="cls-1" x="612.57" y="17.162" width="13.082" height="13.082"/><rect class="cls-1" x="629.072" y="17.162" width="13.082" height="13.082"/><rect class="cls-1" x="645.575" y="17.162" width="13.082" height="13.082"/><rect class="cls-1" x="662.077" y="17.162" width="13.082" height="13.082"/><rect class="cls-1" x="678.938" y="17.162" width="13.082" height="13.082"/><rect class="cls-1" x="529.701" y="34.023" width="13.082" height="13.082"/><rect class="cls-1" x="546.203" y="34.023" width="13.082" height="13.082"/><rect class="cls-1" x="562.705" y="34.023" width="13.082" height="13.082"/><rect class="cls-1" x="579.207" y="34.023" width="13.082" height="13.082"/><rect class="cls-1" x="596.068" y="34.023" width="13.082" height="13.082"/><rect class="cls-1" x="612.57" y="34.023" width="13.082" height="13.082"/><rect class="cls-1" x="629.072" y="34.023" width="13.082" height="13.082"/><rect class="cls-1" x="645.575" y="34.023" width="13.082" height="13.082"/><rect class="cls-1" x="662.077" y="34.023" width="13.082" height="13.082"/><rect class="cls-1" x="678.938" y="34.023" width="13.082" height="13.082"/><rect class="cls-2" x="529.701" y="50.525" width="13.082" height="13.082"/><rect class="cls-2" x="546.203" y="50.525" width="13.082" height="13.082"/><rect class="cls-2" x="562.705" y="50.525" width="13.082" height="13.082"/><rect class="cls-2" x="579.207" y="50.525" width="13.082" height="13.082"/><rect class="cls-2" x="596.068" y="50.525" width="13.082" height="13.082"/><rect class="cls-2" x="612.57" y="50.525" width="13.082" height="13.082"/><rect class="cls-2" x="629.072" y="50.525" width="13.082" height="13.082"/><rect class="cls-2" x="645.575" y="50.525" width="13.082" height="13.082"/><rect class="cls-2" x="662.077" y="50.525" width="13.082" height="13.082"/><rect class="cls-2" x="678.938" y="50.525" width="13.082" height="13.082"/><rect class="cls-2" x="546.203" y="67.386" width="13.082" height="13.082"/><rect class="cls-2" x="562.705" y="67.386" width="13.082" height="13.082"/><rect class="cls-2" x="579.207" y="67.386" width="13.082" height="13.082"/><rect class="cls-2" x="596.068" y="67.386" width="13.082" height="13.082"/><rect class="cls-2" x="612.57" y="67.386" width="13.082" height="13.082"/><rect class="cls-2" x="629.072" y="67.386" width="13.082" height="13.082"/><rect class="cls-2" x="645.575" y="67.386" width="13.082" height="13.082"/><rect class="cls-2" x="662.077" y="67.386" width="13.082" height="13.082"/><rect class="cls-3" x="562.705" y="84.247" width="13.082" height="13.082"/><rect class="cls-3" x="579.207" y="84.247" width="13.082" height="13.082"/><rect class="cls-3" x="596.068" y="84.247" width="13.082" height="13.082"/><rect class="cls-3" x="612.57" y="84.247" width="13.082" height="13.082"/><rect class="cls-3" x="629.072" y="84.247" width="13.082" height="13.082"/><rect class="cls-3" x="645.575" y="84.247" width="13.082" height="13.082"/><rect class="cls-3" x="579.207" y="100.749" width="13.082" height="13.082"/><rect class="cls-3" x="596.068" y="100.749" width="13.082" height="13.082"/><rect class="cls-3" x="612.57" y="100.749" width="13.082" height="13.082"/><rect class="cls-3" x="629.072" y="100.749" width="13.082" height="13.082"/><rect class="cls-3" x="596.068" y="117.61" width="13.082" height="13.082"/><rect class="cls-3" x="612.57" y="117.61" width="13.082" height="13.082"/><path class="cls-3" d="M193.787,498.26l23.836-.02c6.5,0,8.077.191,11.23,1.764,3.941,1.968,6.7,6.89,6.707,11.618,0,4.924-2.75,9.852-6.688,11.824-3.151,1.579-4.53,1.777-11.227,1.782l-23.836.02.026,33.094c.006,7.289-.386,9.062-1.96,12.609a15.2,15.2,0,0,1-26.2.021c-1.776-3.544-1.974-5.12-1.98-12.606l-.073-91.4c-.008-9.061.581-11.623,3.139-15.17,3.542-4.731,8.071-6.7,14.966-6.71l3.743,0,37.034-.03c6.5,0,8.077.191,11.23,1.764,3.941,1.967,6.7,6.889,6.707,11.617,0,4.925-2.75,9.852-6.688,11.825-3.151,1.578-4.727,1.777-11.228,1.782l-28.76.023Z" transform="translate(-163.622 -444.854)"/><path class="cls-4" d="M292.69,519.258c-4.53,0-5.516-.192-7.684-1.175a9.289,9.289,0,0,1-.012-15.957c2.166-.986,3.151-1.184,7.682-1.188l24.623-.02-.021-26c0-4.334.193-5.516,1.177-7.684a9.289,9.289,0,0,1,15.956-.012c.986,2.165,1.184,3.151,1.188,7.681l.021,26,24.624-.02c4.53,0,5.515.193,7.683,1.176a9.289,9.289,0,0,1,.013,15.956c-2.166.987-3.151,1.185-7.682,1.189l-24.624.019.021,26c0,4.334-.193,5.516-1.176,7.684a9.289,9.289,0,0,1-15.956.012c-.986-2.166-1.185-3.151-1.188-7.681l-.021-26Z" transform="translate(-163.622 -444.854)"/><path class="cls-1" d="M465.981,444.854c12.607-.01,20.292,2.348,27.191,8.252a31.822,31.822,0,0,1,11.052,24.615c.009,12.017-4.319,19.309-15.542,26.212,8.276,2.358,12.02,4.325,16.554,8.261,7.1,6.3,10.649,14.766,10.658,25.009.017,22.063-17.5,39.019-40.352,39.036l-35.853.03c-10.243.007-13-.778-17.142-4.714-3.943-4.135-4.733-6.891-4.741-17.135l-.07-87.661c-.007-9.259.581-11.623,3.139-15.171,3.542-4.73,8.072-6.7,14.966-6.71l3.743,0Zm-3.112,50.039c7.485-.007,12.8-5.132,12.795-12.618-.006-6.5-5.919-11.224-14-11.217l-13.789.01L447.9,494.9Zm5.954,55.152c6.7,0,9.652-.992,12.407-4.343a14.21,14.21,0,0,0,3.341-9.459c-.008-9.652-5.527-14.376-16.559-14.367l-20.093.016.023,28.17Z" transform="translate(-163.622 -444.854)"/><path class="cls-4" d="M568.658,501.9c-4.532,0-5.516-.192-7.684-1.175a9.289,9.289,0,0,1-.013-15.956c2.166-.987,3.151-1.185,7.682-1.189l67.568-.054c4.333,0,5.516.193,7.684,1.176a9.289,9.289,0,0,1,.012,15.956c-2.363,1.184-2.954,1.185-8.667,1.189Zm.026,32.9c-4.531,0-5.517-.193-7.684-1.175a9.289,9.289,0,0,1-.012-15.957c2.165-.987,3.15-1.185,7.681-1.188l67.568-.054c4.334,0,5.516.193,7.684,1.176a9.289,9.289,0,0,1,.013,15.956c-2.364,1.184-2.955,1.184-8.667,1.189Z" transform="translate(-163.622 -444.854)"/></svg>